%TF.GenerationSoftware,KiCad,Pcbnew,9.0.0*%
%TF.CreationDate,2025-07-02T16:13:17+05:30*%
%TF.ProjectId,ESP32 GPS + GSM Tracker,45535033-3220-4475-9053-202b2047534d,rev?*%
%TF.SameCoordinates,Original*%
%TF.FileFunction,Plated,1,4,PTH,Mixed*%
%TF.FilePolarity,Positive*%
%FSLAX46Y46*%
G04 Gerber Fmt 4.6, Leading zero omitted, Abs format (unit mm)*
G04 Created by KiCad (PCBNEW 9.0.0) date 2025-07-02 16:13:17*
%MOMM*%
%LPD*%
G01*
G04 APERTURE LIST*
%TA.AperFunction,ComponentDrill*%
%ADD10C,0.200000*%
%TD*%
%TA.AperFunction,ViaDrill*%
%ADD11C,0.300000*%
%TD*%
G04 aperture for slot hole*
%TA.AperFunction,ComponentDrill*%
%ADD12C,0.500000*%
%TD*%
%TA.AperFunction,ComponentDrill*%
%ADD13C,0.900000*%
%TD*%
%TA.AperFunction,ComponentDrill*%
%ADD14C,1.100000*%
%TD*%
%TA.AperFunction,ComponentDrill*%
%ADD15C,1.500000*%
%TD*%
%TA.AperFunction,ComponentDrill*%
%ADD16C,1.700000*%
%TD*%
G04 APERTURE END LIST*
D10*
%TO.C,U7*%
X80245000Y-80000000D03*
X81195000Y-79050000D03*
X81195000Y-80000000D03*
X81195000Y-80950000D03*
%TO.C,U4*%
X81705000Y-68825000D03*
X81705000Y-70225000D03*
%TO.C,U7*%
X82145000Y-79050000D03*
X82145000Y-80000000D03*
X82145000Y-80950000D03*
%TO.C,U4*%
X82905000Y-68825000D03*
X82905000Y-70225000D03*
%TO.C,U7*%
X83095000Y-79050000D03*
X83095000Y-80000000D03*
X83095000Y-80950000D03*
X84045000Y-80000000D03*
%TO.C,U4*%
X84105000Y-68825000D03*
X84105000Y-70225000D03*
%TO.C,U1*%
X114545000Y-94577500D03*
X114545000Y-96102500D03*
X115307500Y-93815000D03*
X115307500Y-95340000D03*
X115307500Y-96865000D03*
X116070000Y-94577500D03*
X116070000Y-96102500D03*
X116832500Y-93815000D03*
X116832500Y-95340000D03*
X116832500Y-96865000D03*
X117595000Y-94577500D03*
X117595000Y-96102500D03*
%TD*%
D11*
X81000000Y-85000000D03*
X86000000Y-73000000D03*
X105000000Y-100000000D03*
X105000000Y-102500000D03*
X110000000Y-95000000D03*
X112500000Y-100000000D03*
X112500000Y-112500000D03*
X114000000Y-122000000D03*
X120000000Y-100000000D03*
X120000000Y-110000000D03*
X122500000Y-107500000D03*
X125049000Y-107500000D03*
X126750000Y-89148529D03*
X127500000Y-97500000D03*
X127500000Y-120000000D03*
X130000000Y-100000000D03*
X130000000Y-105000000D03*
X131900000Y-107500000D03*
X132500000Y-95000000D03*
X135000000Y-110000000D03*
X137500000Y-105000000D03*
X137500000Y-112176000D03*
X140000000Y-112176000D03*
X142500000Y-82500000D03*
X142500000Y-95000000D03*
X142500000Y-112176000D03*
X142500000Y-122500000D03*
X145000000Y-80000000D03*
X145000000Y-90000000D03*
X150000000Y-95000000D03*
X162500000Y-102500000D03*
D12*
%TO.C,J1*%
X113200000Y-126750000D02*
X112500000Y-126750000D01*
X116200000Y-128900000D02*
X115100000Y-128900000D01*
X118800000Y-126750000D02*
X118100000Y-126750000D01*
D13*
%TO.C,D3*%
X148000000Y-67060000D03*
%TO.C,D2*%
X148000000Y-74530000D03*
%TO.C,D1*%
X148000000Y-82000000D03*
%TO.C,D3*%
X150540000Y-67060000D03*
%TO.C,D2*%
X150540000Y-74530000D03*
%TO.C,D1*%
X150540000Y-82000000D03*
D14*
%TO.C,SW3*%
X99500000Y-124050000D03*
X99500000Y-128550000D03*
X106000000Y-124050000D03*
X106000000Y-128550000D03*
%TO.C,SW2*%
X127000000Y-124000000D03*
X127000000Y-128500000D03*
X133500000Y-124000000D03*
X133500000Y-128500000D03*
D15*
%TO.C,J2*%
X160540000Y-86540000D03*
D16*
X158000000Y-84000000D03*
X158000000Y-89080000D03*
X163080000Y-84000000D03*
X163080000Y-89080000D03*
M02*
