%TF.GenerationSoftware,KiCad,Pcbnew,9.0.0*%
%TF.CreationDate,2025-07-02T16:13:02+05:30*%
%TF.ProjectId,ESP32 GPS + GSM Tracker,45535033-3220-4475-9053-202b2047534d,rev?*%
%TF.SameCoordinates,Original*%
%TF.FileFunction,Legend,Top*%
%TF.FilePolarity,Positive*%
%FSLAX46Y46*%
G04 Gerber Fmt 4.6, Leading zero omitted, Abs format (unit mm)*
G04 Created by KiCad (PCBNEW 9.0.0) date 2025-07-02 16:13:02*
%MOMM*%
%LPD*%
G01*
G04 APERTURE LIST*
G04 Aperture macros list*
%AMRoundRect*
0 Rectangle with rounded corners*
0 $1 Rounding radius*
0 $2 $3 $4 $5 $6 $7 $8 $9 X,Y pos of 4 corners*
0 Add a 4 corners polygon primitive as box body*
4,1,4,$2,$3,$4,$5,$6,$7,$8,$9,$2,$3,0*
0 Add four circle primitives for the rounded corners*
1,1,$1+$1,$2,$3*
1,1,$1+$1,$4,$5*
1,1,$1+$1,$6,$7*
1,1,$1+$1,$8,$9*
0 Add four rect primitives between the rounded corners*
20,1,$1+$1,$2,$3,$4,$5,0*
20,1,$1+$1,$4,$5,$6,$7,0*
20,1,$1+$1,$6,$7,$8,$9,0*
20,1,$1+$1,$8,$9,$2,$3,0*%
%AMFreePoly0*
4,1,13,0.750000,1.250000,1.250000,1.250000,1.250000,-1.250000,0.750000,-1.250000,0.750000,-2.300000,-0.750000,-2.300000,-0.750000,-1.250000,-1.250000,-1.250000,-1.250000,1.250000,-0.750000,1.250000,-0.750000,2.300000,0.750000,2.300000,0.750000,1.250000,0.750000,1.250000,$1*%
G04 Aperture macros list end*
%ADD10C,0.150000*%
%ADD11C,0.120000*%
%ADD12R,1.800000X1.800000*%
%ADD13C,1.800000*%
%ADD14C,2.000000*%
%ADD15C,2.390000*%
%ADD16C,3.450000*%
%ADD17R,7.340000X6.350000*%
%ADD18R,1.500000X0.900000*%
%ADD19R,0.900000X1.500000*%
%ADD20C,0.600000*%
%ADD21R,4.200000X4.200000*%
%ADD22O,0.600000X1.600000*%
%ADD23O,1.600000X0.600000*%
%ADD24RoundRect,0.200000X-0.200000X0.700000X-0.200000X-0.700000X0.200000X-0.700000X0.200000X0.700000X0*%
%ADD25RoundRect,0.200000X0.275000X-0.200000X0.275000X0.200000X-0.275000X0.200000X-0.275000X-0.200000X0*%
%ADD26RoundRect,0.225000X-0.225000X-0.250000X0.225000X-0.250000X0.225000X0.250000X-0.225000X0.250000X0*%
%ADD27RoundRect,0.050000X0.200000X-0.650000X0.200000X0.650000X-0.200000X0.650000X-0.200000X-0.650000X0*%
%ADD28RoundRect,0.050050X0.124950X-0.299950X0.124950X0.299950X-0.124950X0.299950X-0.124950X-0.299950X0*%
%ADD29C,0.500000*%
%ADD30FreePoly0,90.000000*%
%ADD31RoundRect,0.225000X-0.250000X0.225000X-0.250000X-0.225000X0.250000X-0.225000X0.250000X0.225000X0*%
%ADD32RoundRect,0.225000X0.225000X0.250000X-0.225000X0.250000X-0.225000X-0.250000X0.225000X-0.250000X0*%
%ADD33RoundRect,0.200000X-0.200000X-0.275000X0.200000X-0.275000X0.200000X0.275000X-0.200000X0.275000X0*%
%ADD34R,0.450000X1.500000*%
%ADD35O,1.800000X1.100000*%
%ADD36O,2.200000X1.100000*%
%ADD37RoundRect,0.225000X0.250000X-0.225000X0.250000X0.225000X-0.250000X0.225000X-0.250000X-0.225000X0*%
%ADD38RoundRect,0.150000X0.150000X-0.825000X0.150000X0.825000X-0.150000X0.825000X-0.150000X-0.825000X0*%
%ADD39R,3.300000X2.410000*%
%ADD40C,2.050000*%
%ADD41C,2.250000*%
%ADD42RoundRect,0.375000X0.625000X0.375000X-0.625000X0.375000X-0.625000X-0.375000X0.625000X-0.375000X0*%
%ADD43RoundRect,0.500000X0.500000X1.400000X-0.500000X1.400000X-0.500000X-1.400000X0.500000X-1.400000X0*%
G04 APERTURE END LIST*
D10*
X128916667Y-122407200D02*
X129059524Y-122454819D01*
X129059524Y-122454819D02*
X129297619Y-122454819D01*
X129297619Y-122454819D02*
X129392857Y-122407200D01*
X129392857Y-122407200D02*
X129440476Y-122359580D01*
X129440476Y-122359580D02*
X129488095Y-122264342D01*
X129488095Y-122264342D02*
X129488095Y-122169104D01*
X129488095Y-122169104D02*
X129440476Y-122073866D01*
X129440476Y-122073866D02*
X129392857Y-122026247D01*
X129392857Y-122026247D02*
X129297619Y-121978628D01*
X129297619Y-121978628D02*
X129107143Y-121931009D01*
X129107143Y-121931009D02*
X129011905Y-121883390D01*
X129011905Y-121883390D02*
X128964286Y-121835771D01*
X128964286Y-121835771D02*
X128916667Y-121740533D01*
X128916667Y-121740533D02*
X128916667Y-121645295D01*
X128916667Y-121645295D02*
X128964286Y-121550057D01*
X128964286Y-121550057D02*
X129011905Y-121502438D01*
X129011905Y-121502438D02*
X129107143Y-121454819D01*
X129107143Y-121454819D02*
X129345238Y-121454819D01*
X129345238Y-121454819D02*
X129488095Y-121502438D01*
X129821429Y-121454819D02*
X130059524Y-122454819D01*
X130059524Y-122454819D02*
X130250000Y-121740533D01*
X130250000Y-121740533D02*
X130440476Y-122454819D01*
X130440476Y-122454819D02*
X130678572Y-121454819D01*
X131011905Y-121550057D02*
X131059524Y-121502438D01*
X131059524Y-121502438D02*
X131154762Y-121454819D01*
X131154762Y-121454819D02*
X131392857Y-121454819D01*
X131392857Y-121454819D02*
X131488095Y-121502438D01*
X131488095Y-121502438D02*
X131535714Y-121550057D01*
X131535714Y-121550057D02*
X131583333Y-121645295D01*
X131583333Y-121645295D02*
X131583333Y-121740533D01*
X131583333Y-121740533D02*
X131535714Y-121883390D01*
X131535714Y-121883390D02*
X130964286Y-122454819D01*
X130964286Y-122454819D02*
X131583333Y-122454819D01*
X118844285Y-40296009D02*
X118987142Y-40343628D01*
X118987142Y-40343628D02*
X119034761Y-40391247D01*
X119034761Y-40391247D02*
X119082380Y-40486485D01*
X119082380Y-40486485D02*
X119082380Y-40629342D01*
X119082380Y-40629342D02*
X119034761Y-40724580D01*
X119034761Y-40724580D02*
X118987142Y-40772200D01*
X118987142Y-40772200D02*
X118891904Y-40819819D01*
X118891904Y-40819819D02*
X118510952Y-40819819D01*
X118510952Y-40819819D02*
X118510952Y-39819819D01*
X118510952Y-39819819D02*
X118844285Y-39819819D01*
X118844285Y-39819819D02*
X118939523Y-39867438D01*
X118939523Y-39867438D02*
X118987142Y-39915057D01*
X118987142Y-39915057D02*
X119034761Y-40010295D01*
X119034761Y-40010295D02*
X119034761Y-40105533D01*
X119034761Y-40105533D02*
X118987142Y-40200771D01*
X118987142Y-40200771D02*
X118939523Y-40248390D01*
X118939523Y-40248390D02*
X118844285Y-40296009D01*
X118844285Y-40296009D02*
X118510952Y-40296009D01*
X119368095Y-39819819D02*
X119939523Y-39819819D01*
X119653809Y-40819819D02*
X119653809Y-39819819D01*
X120796666Y-40819819D02*
X120225238Y-40819819D01*
X120510952Y-40819819D02*
X120510952Y-39819819D01*
X120510952Y-39819819D02*
X120415714Y-39962676D01*
X120415714Y-39962676D02*
X120320476Y-40057914D01*
X120320476Y-40057914D02*
X120225238Y-40105533D01*
X105594819Y-105441904D02*
X106404342Y-105441904D01*
X106404342Y-105441904D02*
X106499580Y-105394285D01*
X106499580Y-105394285D02*
X106547200Y-105346666D01*
X106547200Y-105346666D02*
X106594819Y-105251428D01*
X106594819Y-105251428D02*
X106594819Y-105060952D01*
X106594819Y-105060952D02*
X106547200Y-104965714D01*
X106547200Y-104965714D02*
X106499580Y-104918095D01*
X106499580Y-104918095D02*
X106404342Y-104870476D01*
X106404342Y-104870476D02*
X105594819Y-104870476D01*
X106594819Y-103870476D02*
X106594819Y-104441904D01*
X106594819Y-104156190D02*
X105594819Y-104156190D01*
X105594819Y-104156190D02*
X105737676Y-104251428D01*
X105737676Y-104251428D02*
X105832914Y-104346666D01*
X105832914Y-104346666D02*
X105880533Y-104441904D01*
X131454819Y-101761904D02*
X132264342Y-101761904D01*
X132264342Y-101761904D02*
X132359580Y-101714285D01*
X132359580Y-101714285D02*
X132407200Y-101666666D01*
X132407200Y-101666666D02*
X132454819Y-101571428D01*
X132454819Y-101571428D02*
X132454819Y-101380952D01*
X132454819Y-101380952D02*
X132407200Y-101285714D01*
X132407200Y-101285714D02*
X132359580Y-101238095D01*
X132359580Y-101238095D02*
X132264342Y-101190476D01*
X132264342Y-101190476D02*
X131454819Y-101190476D01*
X131550057Y-100761904D02*
X131502438Y-100714285D01*
X131502438Y-100714285D02*
X131454819Y-100619047D01*
X131454819Y-100619047D02*
X131454819Y-100380952D01*
X131454819Y-100380952D02*
X131502438Y-100285714D01*
X131502438Y-100285714D02*
X131550057Y-100238095D01*
X131550057Y-100238095D02*
X131645295Y-100190476D01*
X131645295Y-100190476D02*
X131740533Y-100190476D01*
X131740533Y-100190476D02*
X131883390Y-100238095D01*
X131883390Y-100238095D02*
X132454819Y-100809523D01*
X132454819Y-100809523D02*
X132454819Y-100190476D01*
X95454819Y-105761904D02*
X96264342Y-105761904D01*
X96264342Y-105761904D02*
X96359580Y-105714285D01*
X96359580Y-105714285D02*
X96407200Y-105666666D01*
X96407200Y-105666666D02*
X96454819Y-105571428D01*
X96454819Y-105571428D02*
X96454819Y-105380952D01*
X96454819Y-105380952D02*
X96407200Y-105285714D01*
X96407200Y-105285714D02*
X96359580Y-105238095D01*
X96359580Y-105238095D02*
X96264342Y-105190476D01*
X96264342Y-105190476D02*
X95454819Y-105190476D01*
X95454819Y-104809523D02*
X95454819Y-104190476D01*
X95454819Y-104190476D02*
X95835771Y-104523809D01*
X95835771Y-104523809D02*
X95835771Y-104380952D01*
X95835771Y-104380952D02*
X95883390Y-104285714D01*
X95883390Y-104285714D02*
X95931009Y-104238095D01*
X95931009Y-104238095D02*
X96026247Y-104190476D01*
X96026247Y-104190476D02*
X96264342Y-104190476D01*
X96264342Y-104190476D02*
X96359580Y-104238095D01*
X96359580Y-104238095D02*
X96407200Y-104285714D01*
X96407200Y-104285714D02*
X96454819Y-104380952D01*
X96454819Y-104380952D02*
X96454819Y-104666666D01*
X96454819Y-104666666D02*
X96407200Y-104761904D01*
X96407200Y-104761904D02*
X96359580Y-104809523D01*
X102024819Y-91991666D02*
X101548628Y-92324999D01*
X102024819Y-92563094D02*
X101024819Y-92563094D01*
X101024819Y-92563094D02*
X101024819Y-92182142D01*
X101024819Y-92182142D02*
X101072438Y-92086904D01*
X101072438Y-92086904D02*
X101120057Y-92039285D01*
X101120057Y-92039285D02*
X101215295Y-91991666D01*
X101215295Y-91991666D02*
X101358152Y-91991666D01*
X101358152Y-91991666D02*
X101453390Y-92039285D01*
X101453390Y-92039285D02*
X101501009Y-92086904D01*
X101501009Y-92086904D02*
X101548628Y-92182142D01*
X101548628Y-92182142D02*
X101548628Y-92563094D01*
X101024819Y-91658332D02*
X101024819Y-91039285D01*
X101024819Y-91039285D02*
X101405771Y-91372618D01*
X101405771Y-91372618D02*
X101405771Y-91229761D01*
X101405771Y-91229761D02*
X101453390Y-91134523D01*
X101453390Y-91134523D02*
X101501009Y-91086904D01*
X101501009Y-91086904D02*
X101596247Y-91039285D01*
X101596247Y-91039285D02*
X101834342Y-91039285D01*
X101834342Y-91039285D02*
X101929580Y-91086904D01*
X101929580Y-91086904D02*
X101977200Y-91134523D01*
X101977200Y-91134523D02*
X102024819Y-91229761D01*
X102024819Y-91229761D02*
X102024819Y-91515475D01*
X102024819Y-91515475D02*
X101977200Y-91610713D01*
X101977200Y-91610713D02*
X101929580Y-91658332D01*
X149138333Y-125929580D02*
X149090714Y-125977200D01*
X149090714Y-125977200D02*
X148947857Y-126024819D01*
X148947857Y-126024819D02*
X148852619Y-126024819D01*
X148852619Y-126024819D02*
X148709762Y-125977200D01*
X148709762Y-125977200D02*
X148614524Y-125881961D01*
X148614524Y-125881961D02*
X148566905Y-125786723D01*
X148566905Y-125786723D02*
X148519286Y-125596247D01*
X148519286Y-125596247D02*
X148519286Y-125453390D01*
X148519286Y-125453390D02*
X148566905Y-125262914D01*
X148566905Y-125262914D02*
X148614524Y-125167676D01*
X148614524Y-125167676D02*
X148709762Y-125072438D01*
X148709762Y-125072438D02*
X148852619Y-125024819D01*
X148852619Y-125024819D02*
X148947857Y-125024819D01*
X148947857Y-125024819D02*
X149090714Y-125072438D01*
X149090714Y-125072438D02*
X149138333Y-125120057D01*
X149995476Y-125024819D02*
X149805000Y-125024819D01*
X149805000Y-125024819D02*
X149709762Y-125072438D01*
X149709762Y-125072438D02*
X149662143Y-125120057D01*
X149662143Y-125120057D02*
X149566905Y-125262914D01*
X149566905Y-125262914D02*
X149519286Y-125453390D01*
X149519286Y-125453390D02*
X149519286Y-125834342D01*
X149519286Y-125834342D02*
X149566905Y-125929580D01*
X149566905Y-125929580D02*
X149614524Y-125977200D01*
X149614524Y-125977200D02*
X149709762Y-126024819D01*
X149709762Y-126024819D02*
X149900238Y-126024819D01*
X149900238Y-126024819D02*
X149995476Y-125977200D01*
X149995476Y-125977200D02*
X150043095Y-125929580D01*
X150043095Y-125929580D02*
X150090714Y-125834342D01*
X150090714Y-125834342D02*
X150090714Y-125596247D01*
X150090714Y-125596247D02*
X150043095Y-125501009D01*
X150043095Y-125501009D02*
X149995476Y-125453390D01*
X149995476Y-125453390D02*
X149900238Y-125405771D01*
X149900238Y-125405771D02*
X149709762Y-125405771D01*
X149709762Y-125405771D02*
X149614524Y-125453390D01*
X149614524Y-125453390D02*
X149566905Y-125501009D01*
X149566905Y-125501009D02*
X149519286Y-125596247D01*
X128024819Y-102991666D02*
X127548628Y-103324999D01*
X128024819Y-103563094D02*
X127024819Y-103563094D01*
X127024819Y-103563094D02*
X127024819Y-103182142D01*
X127024819Y-103182142D02*
X127072438Y-103086904D01*
X127072438Y-103086904D02*
X127120057Y-103039285D01*
X127120057Y-103039285D02*
X127215295Y-102991666D01*
X127215295Y-102991666D02*
X127358152Y-102991666D01*
X127358152Y-102991666D02*
X127453390Y-103039285D01*
X127453390Y-103039285D02*
X127501009Y-103086904D01*
X127501009Y-103086904D02*
X127548628Y-103182142D01*
X127548628Y-103182142D02*
X127548628Y-103563094D01*
X127358152Y-102134523D02*
X128024819Y-102134523D01*
X126977200Y-102372618D02*
X127691485Y-102610713D01*
X127691485Y-102610713D02*
X127691485Y-101991666D01*
X87789580Y-86391666D02*
X87837200Y-86439285D01*
X87837200Y-86439285D02*
X87884819Y-86582142D01*
X87884819Y-86582142D02*
X87884819Y-86677380D01*
X87884819Y-86677380D02*
X87837200Y-86820237D01*
X87837200Y-86820237D02*
X87741961Y-86915475D01*
X87741961Y-86915475D02*
X87646723Y-86963094D01*
X87646723Y-86963094D02*
X87456247Y-87010713D01*
X87456247Y-87010713D02*
X87313390Y-87010713D01*
X87313390Y-87010713D02*
X87122914Y-86963094D01*
X87122914Y-86963094D02*
X87027676Y-86915475D01*
X87027676Y-86915475D02*
X86932438Y-86820237D01*
X86932438Y-86820237D02*
X86884819Y-86677380D01*
X86884819Y-86677380D02*
X86884819Y-86582142D01*
X86884819Y-86582142D02*
X86932438Y-86439285D01*
X86932438Y-86439285D02*
X86980057Y-86391666D01*
X86980057Y-86010713D02*
X86932438Y-85963094D01*
X86932438Y-85963094D02*
X86884819Y-85867856D01*
X86884819Y-85867856D02*
X86884819Y-85629761D01*
X86884819Y-85629761D02*
X86932438Y-85534523D01*
X86932438Y-85534523D02*
X86980057Y-85486904D01*
X86980057Y-85486904D02*
X87075295Y-85439285D01*
X87075295Y-85439285D02*
X87170533Y-85439285D01*
X87170533Y-85439285D02*
X87313390Y-85486904D01*
X87313390Y-85486904D02*
X87884819Y-86058332D01*
X87884819Y-86058332D02*
X87884819Y-85439285D01*
X161608333Y-97789580D02*
X161560714Y-97837200D01*
X161560714Y-97837200D02*
X161417857Y-97884819D01*
X161417857Y-97884819D02*
X161322619Y-97884819D01*
X161322619Y-97884819D02*
X161179762Y-97837200D01*
X161179762Y-97837200D02*
X161084524Y-97741961D01*
X161084524Y-97741961D02*
X161036905Y-97646723D01*
X161036905Y-97646723D02*
X160989286Y-97456247D01*
X160989286Y-97456247D02*
X160989286Y-97313390D01*
X160989286Y-97313390D02*
X161036905Y-97122914D01*
X161036905Y-97122914D02*
X161084524Y-97027676D01*
X161084524Y-97027676D02*
X161179762Y-96932438D01*
X161179762Y-96932438D02*
X161322619Y-96884819D01*
X161322619Y-96884819D02*
X161417857Y-96884819D01*
X161417857Y-96884819D02*
X161560714Y-96932438D01*
X161560714Y-96932438D02*
X161608333Y-96980057D01*
X161941667Y-96884819D02*
X162608333Y-96884819D01*
X162608333Y-96884819D02*
X162179762Y-97884819D01*
X101416667Y-122457200D02*
X101559524Y-122504819D01*
X101559524Y-122504819D02*
X101797619Y-122504819D01*
X101797619Y-122504819D02*
X101892857Y-122457200D01*
X101892857Y-122457200D02*
X101940476Y-122409580D01*
X101940476Y-122409580D02*
X101988095Y-122314342D01*
X101988095Y-122314342D02*
X101988095Y-122219104D01*
X101988095Y-122219104D02*
X101940476Y-122123866D01*
X101940476Y-122123866D02*
X101892857Y-122076247D01*
X101892857Y-122076247D02*
X101797619Y-122028628D01*
X101797619Y-122028628D02*
X101607143Y-121981009D01*
X101607143Y-121981009D02*
X101511905Y-121933390D01*
X101511905Y-121933390D02*
X101464286Y-121885771D01*
X101464286Y-121885771D02*
X101416667Y-121790533D01*
X101416667Y-121790533D02*
X101416667Y-121695295D01*
X101416667Y-121695295D02*
X101464286Y-121600057D01*
X101464286Y-121600057D02*
X101511905Y-121552438D01*
X101511905Y-121552438D02*
X101607143Y-121504819D01*
X101607143Y-121504819D02*
X101845238Y-121504819D01*
X101845238Y-121504819D02*
X101988095Y-121552438D01*
X102321429Y-121504819D02*
X102559524Y-122504819D01*
X102559524Y-122504819D02*
X102750000Y-121790533D01*
X102750000Y-121790533D02*
X102940476Y-122504819D01*
X102940476Y-122504819D02*
X103178572Y-121504819D01*
X103464286Y-121504819D02*
X104083333Y-121504819D01*
X104083333Y-121504819D02*
X103750000Y-121885771D01*
X103750000Y-121885771D02*
X103892857Y-121885771D01*
X103892857Y-121885771D02*
X103988095Y-121933390D01*
X103988095Y-121933390D02*
X104035714Y-121981009D01*
X104035714Y-121981009D02*
X104083333Y-122076247D01*
X104083333Y-122076247D02*
X104083333Y-122314342D01*
X104083333Y-122314342D02*
X104035714Y-122409580D01*
X104035714Y-122409580D02*
X103988095Y-122457200D01*
X103988095Y-122457200D02*
X103892857Y-122504819D01*
X103892857Y-122504819D02*
X103607143Y-122504819D01*
X103607143Y-122504819D02*
X103511905Y-122457200D01*
X103511905Y-122457200D02*
X103464286Y-122409580D01*
X89608333Y-65929580D02*
X89560714Y-65977200D01*
X89560714Y-65977200D02*
X89417857Y-66024819D01*
X89417857Y-66024819D02*
X89322619Y-66024819D01*
X89322619Y-66024819D02*
X89179762Y-65977200D01*
X89179762Y-65977200D02*
X89084524Y-65881961D01*
X89084524Y-65881961D02*
X89036905Y-65786723D01*
X89036905Y-65786723D02*
X88989286Y-65596247D01*
X88989286Y-65596247D02*
X88989286Y-65453390D01*
X88989286Y-65453390D02*
X89036905Y-65262914D01*
X89036905Y-65262914D02*
X89084524Y-65167676D01*
X89084524Y-65167676D02*
X89179762Y-65072438D01*
X89179762Y-65072438D02*
X89322619Y-65024819D01*
X89322619Y-65024819D02*
X89417857Y-65024819D01*
X89417857Y-65024819D02*
X89560714Y-65072438D01*
X89560714Y-65072438D02*
X89608333Y-65120057D01*
X90179762Y-65453390D02*
X90084524Y-65405771D01*
X90084524Y-65405771D02*
X90036905Y-65358152D01*
X90036905Y-65358152D02*
X89989286Y-65262914D01*
X89989286Y-65262914D02*
X89989286Y-65215295D01*
X89989286Y-65215295D02*
X90036905Y-65120057D01*
X90036905Y-65120057D02*
X90084524Y-65072438D01*
X90084524Y-65072438D02*
X90179762Y-65024819D01*
X90179762Y-65024819D02*
X90370238Y-65024819D01*
X90370238Y-65024819D02*
X90465476Y-65072438D01*
X90465476Y-65072438D02*
X90513095Y-65120057D01*
X90513095Y-65120057D02*
X90560714Y-65215295D01*
X90560714Y-65215295D02*
X90560714Y-65262914D01*
X90560714Y-65262914D02*
X90513095Y-65358152D01*
X90513095Y-65358152D02*
X90465476Y-65405771D01*
X90465476Y-65405771D02*
X90370238Y-65453390D01*
X90370238Y-65453390D02*
X90179762Y-65453390D01*
X90179762Y-65453390D02*
X90084524Y-65501009D01*
X90084524Y-65501009D02*
X90036905Y-65548628D01*
X90036905Y-65548628D02*
X89989286Y-65643866D01*
X89989286Y-65643866D02*
X89989286Y-65834342D01*
X89989286Y-65834342D02*
X90036905Y-65929580D01*
X90036905Y-65929580D02*
X90084524Y-65977200D01*
X90084524Y-65977200D02*
X90179762Y-66024819D01*
X90179762Y-66024819D02*
X90370238Y-66024819D01*
X90370238Y-66024819D02*
X90465476Y-65977200D01*
X90465476Y-65977200D02*
X90513095Y-65929580D01*
X90513095Y-65929580D02*
X90560714Y-65834342D01*
X90560714Y-65834342D02*
X90560714Y-65643866D01*
X90560714Y-65643866D02*
X90513095Y-65548628D01*
X90513095Y-65548628D02*
X90465476Y-65501009D01*
X90465476Y-65501009D02*
X90370238Y-65453390D01*
X143658333Y-111024819D02*
X143325000Y-110548628D01*
X143086905Y-111024819D02*
X143086905Y-110024819D01*
X143086905Y-110024819D02*
X143467857Y-110024819D01*
X143467857Y-110024819D02*
X143563095Y-110072438D01*
X143563095Y-110072438D02*
X143610714Y-110120057D01*
X143610714Y-110120057D02*
X143658333Y-110215295D01*
X143658333Y-110215295D02*
X143658333Y-110358152D01*
X143658333Y-110358152D02*
X143610714Y-110453390D01*
X143610714Y-110453390D02*
X143563095Y-110501009D01*
X143563095Y-110501009D02*
X143467857Y-110548628D01*
X143467857Y-110548628D02*
X143086905Y-110548628D01*
X144039286Y-110120057D02*
X144086905Y-110072438D01*
X144086905Y-110072438D02*
X144182143Y-110024819D01*
X144182143Y-110024819D02*
X144420238Y-110024819D01*
X144420238Y-110024819D02*
X144515476Y-110072438D01*
X144515476Y-110072438D02*
X144563095Y-110120057D01*
X144563095Y-110120057D02*
X144610714Y-110215295D01*
X144610714Y-110215295D02*
X144610714Y-110310533D01*
X144610714Y-110310533D02*
X144563095Y-110453390D01*
X144563095Y-110453390D02*
X143991667Y-111024819D01*
X143991667Y-111024819D02*
X144610714Y-111024819D01*
X115316666Y-124429819D02*
X115316666Y-125144104D01*
X115316666Y-125144104D02*
X115269047Y-125286961D01*
X115269047Y-125286961D02*
X115173809Y-125382200D01*
X115173809Y-125382200D02*
X115030952Y-125429819D01*
X115030952Y-125429819D02*
X114935714Y-125429819D01*
X116316666Y-125429819D02*
X115745238Y-125429819D01*
X116030952Y-125429819D02*
X116030952Y-124429819D01*
X116030952Y-124429819D02*
X115935714Y-124572676D01*
X115935714Y-124572676D02*
X115840476Y-124667914D01*
X115840476Y-124667914D02*
X115745238Y-124715533D01*
X148531905Y-86414819D02*
X148531905Y-85414819D01*
X148531905Y-85414819D02*
X148770000Y-85414819D01*
X148770000Y-85414819D02*
X148912857Y-85462438D01*
X148912857Y-85462438D02*
X149008095Y-85557676D01*
X149008095Y-85557676D02*
X149055714Y-85652914D01*
X149055714Y-85652914D02*
X149103333Y-85843390D01*
X149103333Y-85843390D02*
X149103333Y-85986247D01*
X149103333Y-85986247D02*
X149055714Y-86176723D01*
X149055714Y-86176723D02*
X149008095Y-86271961D01*
X149008095Y-86271961D02*
X148912857Y-86367200D01*
X148912857Y-86367200D02*
X148770000Y-86414819D01*
X148770000Y-86414819D02*
X148531905Y-86414819D01*
X150055714Y-86414819D02*
X149484286Y-86414819D01*
X149770000Y-86414819D02*
X149770000Y-85414819D01*
X149770000Y-85414819D02*
X149674762Y-85557676D01*
X149674762Y-85557676D02*
X149579524Y-85652914D01*
X149579524Y-85652914D02*
X149484286Y-85700533D01*
X94608333Y-87929580D02*
X94560714Y-87977200D01*
X94560714Y-87977200D02*
X94417857Y-88024819D01*
X94417857Y-88024819D02*
X94322619Y-88024819D01*
X94322619Y-88024819D02*
X94179762Y-87977200D01*
X94179762Y-87977200D02*
X94084524Y-87881961D01*
X94084524Y-87881961D02*
X94036905Y-87786723D01*
X94036905Y-87786723D02*
X93989286Y-87596247D01*
X93989286Y-87596247D02*
X93989286Y-87453390D01*
X93989286Y-87453390D02*
X94036905Y-87262914D01*
X94036905Y-87262914D02*
X94084524Y-87167676D01*
X94084524Y-87167676D02*
X94179762Y-87072438D01*
X94179762Y-87072438D02*
X94322619Y-87024819D01*
X94322619Y-87024819D02*
X94417857Y-87024819D01*
X94417857Y-87024819D02*
X94560714Y-87072438D01*
X94560714Y-87072438D02*
X94608333Y-87120057D01*
X95560714Y-88024819D02*
X94989286Y-88024819D01*
X95275000Y-88024819D02*
X95275000Y-87024819D01*
X95275000Y-87024819D02*
X95179762Y-87167676D01*
X95179762Y-87167676D02*
X95084524Y-87262914D01*
X95084524Y-87262914D02*
X94989286Y-87310533D01*
X78959819Y-70286904D02*
X79769342Y-70286904D01*
X79769342Y-70286904D02*
X79864580Y-70239285D01*
X79864580Y-70239285D02*
X79912200Y-70191666D01*
X79912200Y-70191666D02*
X79959819Y-70096428D01*
X79959819Y-70096428D02*
X79959819Y-69905952D01*
X79959819Y-69905952D02*
X79912200Y-69810714D01*
X79912200Y-69810714D02*
X79864580Y-69763095D01*
X79864580Y-69763095D02*
X79769342Y-69715476D01*
X79769342Y-69715476D02*
X78959819Y-69715476D01*
X79293152Y-68810714D02*
X79959819Y-68810714D01*
X78912200Y-69048809D02*
X79626485Y-69286904D01*
X79626485Y-69286904D02*
X79626485Y-68667857D01*
X125668095Y-117929819D02*
X125668095Y-118739342D01*
X125668095Y-118739342D02*
X125715714Y-118834580D01*
X125715714Y-118834580D02*
X125763333Y-118882200D01*
X125763333Y-118882200D02*
X125858571Y-118929819D01*
X125858571Y-118929819D02*
X126049047Y-118929819D01*
X126049047Y-118929819D02*
X126144285Y-118882200D01*
X126144285Y-118882200D02*
X126191904Y-118834580D01*
X126191904Y-118834580D02*
X126239523Y-118739342D01*
X126239523Y-118739342D02*
X126239523Y-117929819D01*
X127191904Y-117929819D02*
X126715714Y-117929819D01*
X126715714Y-117929819D02*
X126668095Y-118406009D01*
X126668095Y-118406009D02*
X126715714Y-118358390D01*
X126715714Y-118358390D02*
X126810952Y-118310771D01*
X126810952Y-118310771D02*
X127049047Y-118310771D01*
X127049047Y-118310771D02*
X127144285Y-118358390D01*
X127144285Y-118358390D02*
X127191904Y-118406009D01*
X127191904Y-118406009D02*
X127239523Y-118501247D01*
X127239523Y-118501247D02*
X127239523Y-118739342D01*
X127239523Y-118739342D02*
X127191904Y-118834580D01*
X127191904Y-118834580D02*
X127144285Y-118882200D01*
X127144285Y-118882200D02*
X127049047Y-118929819D01*
X127049047Y-118929819D02*
X126810952Y-118929819D01*
X126810952Y-118929819D02*
X126715714Y-118882200D01*
X126715714Y-118882200D02*
X126668095Y-118834580D01*
X155024819Y-66341666D02*
X154548628Y-66674999D01*
X155024819Y-66913094D02*
X154024819Y-66913094D01*
X154024819Y-66913094D02*
X154024819Y-66532142D01*
X154024819Y-66532142D02*
X154072438Y-66436904D01*
X154072438Y-66436904D02*
X154120057Y-66389285D01*
X154120057Y-66389285D02*
X154215295Y-66341666D01*
X154215295Y-66341666D02*
X154358152Y-66341666D01*
X154358152Y-66341666D02*
X154453390Y-66389285D01*
X154453390Y-66389285D02*
X154501009Y-66436904D01*
X154501009Y-66436904D02*
X154548628Y-66532142D01*
X154548628Y-66532142D02*
X154548628Y-66913094D01*
X154024819Y-65436904D02*
X154024819Y-65913094D01*
X154024819Y-65913094D02*
X154501009Y-65960713D01*
X154501009Y-65960713D02*
X154453390Y-65913094D01*
X154453390Y-65913094D02*
X154405771Y-65817856D01*
X154405771Y-65817856D02*
X154405771Y-65579761D01*
X154405771Y-65579761D02*
X154453390Y-65484523D01*
X154453390Y-65484523D02*
X154501009Y-65436904D01*
X154501009Y-65436904D02*
X154596247Y-65389285D01*
X154596247Y-65389285D02*
X154834342Y-65389285D01*
X154834342Y-65389285D02*
X154929580Y-65436904D01*
X154929580Y-65436904D02*
X154977200Y-65484523D01*
X154977200Y-65484523D02*
X155024819Y-65579761D01*
X155024819Y-65579761D02*
X155024819Y-65817856D01*
X155024819Y-65817856D02*
X154977200Y-65913094D01*
X154977200Y-65913094D02*
X154929580Y-65960713D01*
D11*
%TO.C,D2*%
X151830000Y-76075000D02*
X151830000Y-72985000D01*
X146280000Y-74529952D02*
G75*
G02*
X151830000Y-72985170I2990000J-48D01*
G01*
X151830000Y-76074830D02*
G75*
G02*
X146280000Y-74530048I-2560000J1544830D01*
G01*
X151770000Y-74530000D02*
G75*
G02*
X146770000Y-74530000I-2500000J0D01*
G01*
X146770000Y-74530000D02*
G75*
G02*
X151770000Y-74530000I2500000J0D01*
G01*
%TO.C,SW2*%
X126750000Y-125500000D02*
X126750000Y-127000000D01*
X128000000Y-129500000D02*
X132500000Y-129500000D01*
X132500000Y-123000000D02*
X128000000Y-123000000D01*
X133750000Y-127000000D02*
X133750000Y-125500000D01*
%TO.C,BT1*%
X75880000Y-45865000D02*
X78380000Y-45865000D01*
X77130000Y-47115000D02*
X77130000Y-44615000D01*
X80990000Y-41425000D02*
X80990000Y-48425000D01*
X80990000Y-48425000D02*
X76630000Y-48425000D01*
X80990000Y-62305000D02*
X80990000Y-55305000D01*
X158270000Y-41425000D02*
X80990000Y-41425000D01*
X158270000Y-48425000D02*
X158270000Y-41445000D01*
X158270000Y-55305000D02*
X158270000Y-62305000D01*
X158270000Y-62305000D02*
X80990000Y-62305000D01*
X163380000Y-45865000D02*
X160880000Y-45865000D01*
%TO.C,U1*%
X107630000Y-80390000D02*
X107630000Y-86550000D01*
X107630000Y-80390000D02*
X125870000Y-80390000D01*
X107630000Y-105350000D02*
X107630000Y-106130000D01*
X107630000Y-106130000D02*
X108630000Y-106130000D01*
X125870000Y-80390000D02*
X125870000Y-86805000D01*
X125870000Y-105350000D02*
X125870000Y-106130000D01*
X125870000Y-106130000D02*
X124870000Y-106130000D01*
X107625000Y-87275000D02*
X107125000Y-87275000D01*
X107625000Y-86775000D01*
X107625000Y-87275000D01*
G36*
X107625000Y-87275000D02*
G01*
X107125000Y-87275000D01*
X107625000Y-86775000D01*
X107625000Y-87275000D01*
G37*
%TO.C,U2*%
X134090000Y-93040000D02*
X134090000Y-96000000D01*
X134090000Y-93040000D02*
X136400000Y-93040000D01*
X134090000Y-108850000D02*
X134090000Y-106000000D01*
X151910000Y-93040000D02*
X149600000Y-93040000D01*
X151910000Y-93040000D02*
X151910000Y-96000000D01*
X151910000Y-108960000D02*
X149600000Y-108960000D01*
X151910000Y-108960000D02*
X151910000Y-106000000D01*
X136360000Y-109410000D02*
X136030000Y-109650000D01*
X136030000Y-109170000D01*
X136360000Y-109410000D01*
G36*
X136360000Y-109410000D02*
G01*
X136030000Y-109650000D01*
X136030000Y-109170000D01*
X136360000Y-109410000D01*
G37*
%TO.C,U3*%
X78890000Y-98790000D02*
X78890000Y-111210000D01*
X79340000Y-98790000D02*
X78890000Y-98790000D01*
X79340000Y-111210000D02*
X78900000Y-111210000D01*
X86740000Y-98790000D02*
X85060000Y-98790000D01*
X86740000Y-111210000D02*
X85060000Y-111210000D01*
X95110000Y-98790000D02*
X94660000Y-98790000D01*
X95110000Y-98790000D02*
X95110000Y-111210000D01*
X95110000Y-111210000D02*
X94660000Y-111210000D01*
X94990000Y-98540000D02*
X94660000Y-98300000D01*
X94990000Y-98060000D01*
X94990000Y-98540000D01*
G36*
X94990000Y-98540000D02*
G01*
X94660000Y-98300000D01*
X94990000Y-98060000D01*
X94990000Y-98540000D01*
G37*
%TO.C,R6*%
X143477500Y-76412258D02*
X143477500Y-75937742D01*
X144522500Y-76412258D02*
X144522500Y-75937742D01*
%TO.C,R3*%
X102477500Y-92062258D02*
X102477500Y-91587742D01*
X103522500Y-92062258D02*
X103522500Y-91587742D01*
%TO.C,C6*%
X149164420Y-126490000D02*
X149445580Y-126490000D01*
X149164420Y-127510000D02*
X149445580Y-127510000D01*
%TO.C,U7*%
X79295000Y-77500000D02*
X79295000Y-82500000D01*
X84995000Y-77500000D02*
X84995000Y-82500000D01*
X79575000Y-83160000D02*
X79295000Y-82880000D01*
X79575000Y-82880000D01*
X79575000Y-83160000D01*
G36*
X79575000Y-83160000D02*
G01*
X79295000Y-82880000D01*
X79575000Y-82880000D01*
X79575000Y-83160000D01*
G37*
%TO.C,R4*%
X128477500Y-103062258D02*
X128477500Y-102587742D01*
X129522500Y-103062258D02*
X129522500Y-102587742D01*
%TO.C,C2*%
X85490000Y-86084420D02*
X85490000Y-86365580D01*
X86510000Y-86084420D02*
X86510000Y-86365580D01*
%TO.C,C7*%
X161915580Y-95490000D02*
X161634420Y-95490000D01*
X161915580Y-96510000D02*
X161634420Y-96510000D01*
%TO.C,SW3*%
X99250000Y-125550000D02*
X99250000Y-127050000D01*
X100500000Y-129550000D02*
X105000000Y-129550000D01*
X105000000Y-123050000D02*
X100500000Y-123050000D01*
X106250000Y-127050000D02*
X106250000Y-125550000D01*
%TO.C,C8*%
X89634420Y-66490000D02*
X89915580Y-66490000D01*
X89634420Y-67510000D02*
X89915580Y-67510000D01*
%TO.C,R2*%
X143587742Y-111477500D02*
X144062258Y-111477500D01*
X143587742Y-112522500D02*
X144062258Y-112522500D01*
%TO.C,C4*%
X149164420Y-111490000D02*
X149445580Y-111490000D01*
X149164420Y-112510000D02*
X149445580Y-112510000D01*
%TO.C,D3*%
X151830000Y-68605000D02*
X151830000Y-65515000D01*
X146280000Y-67059952D02*
G75*
G02*
X151830000Y-65515170I2990000J-48D01*
G01*
X151830000Y-68604830D02*
G75*
G02*
X146280000Y-67060048I-2560000J1544830D01*
G01*
X151770000Y-67060000D02*
G75*
G02*
X146770000Y-67060000I-2500000J0D01*
G01*
X146770000Y-67060000D02*
G75*
G02*
X151770000Y-67060000I2500000J0D01*
G01*
%TO.C,J1*%
X111500000Y-126000000D02*
X111500000Y-129550000D01*
X111500000Y-129550000D02*
X114400000Y-129550000D01*
X113650000Y-126000000D02*
X111500000Y-126000000D01*
X113950000Y-126000000D02*
X114550000Y-126000000D01*
X113950000Y-126750000D02*
X113950000Y-126000000D01*
X117650000Y-126000000D02*
X119800000Y-126000000D01*
X119800000Y-126000000D02*
X119800000Y-129550000D01*
X119800000Y-129550000D02*
X116900000Y-129550000D01*
%TO.C,R1*%
X128587742Y-105477500D02*
X129062258Y-105477500D01*
X128587742Y-106522500D02*
X129062258Y-106522500D01*
%TO.C,D1*%
X151830000Y-83545000D02*
X151830000Y-80455000D01*
X146280000Y-81999952D02*
G75*
G02*
X151830000Y-80455170I2990000J-48D01*
G01*
X151830000Y-83544830D02*
G75*
G02*
X146280000Y-82000048I-2560000J1544830D01*
G01*
X151770000Y-82000000D02*
G75*
G02*
X146770000Y-82000000I-2500000J0D01*
G01*
X146770000Y-82000000D02*
G75*
G02*
X151770000Y-82000000I2500000J0D01*
G01*
%TO.C,C3*%
X108490000Y-110915580D02*
X108490000Y-110634420D01*
X109510000Y-110915580D02*
X109510000Y-110634420D01*
%TO.C,C1*%
X94634420Y-88490000D02*
X94915580Y-88490000D01*
X94634420Y-89510000D02*
X94915580Y-89510000D01*
%TO.C,U4*%
X80345000Y-69525000D02*
X80345000Y-67575000D01*
X80345000Y-69525000D02*
X80345000Y-71475000D01*
X85465000Y-69525000D02*
X85465000Y-67575000D01*
X85465000Y-69525000D02*
X85465000Y-71475000D01*
X80440000Y-72225000D02*
X80110000Y-72465000D01*
X80110000Y-71985000D01*
X80440000Y-72225000D01*
G36*
X80440000Y-72225000D02*
G01*
X80110000Y-72465000D01*
X80110000Y-71985000D01*
X80440000Y-72225000D01*
G37*
%TO.C,C5*%
X99490000Y-110634420D02*
X99490000Y-110915580D01*
X100510000Y-110634420D02*
X100510000Y-110915580D01*
%TO.C,C9*%
X128490000Y-95915580D02*
X128490000Y-95634420D01*
X129510000Y-95915580D02*
X129510000Y-95634420D01*
%TO.C,J2*%
X157185000Y-85090000D02*
X157185000Y-87990000D01*
X161990000Y-83185000D02*
X159090000Y-83185000D01*
X161990000Y-89895000D02*
X159090000Y-89895000D01*
X163895000Y-85090000D02*
X163895000Y-87990000D01*
%TO.C,U5*%
X124520000Y-110565000D02*
X124520000Y-111825000D01*
X124520000Y-117385000D02*
X124520000Y-116125000D01*
X128280000Y-110565000D02*
X124520000Y-110565000D01*
X128280000Y-117385000D02*
X124520000Y-117385000D01*
X129800000Y-117615000D02*
X129320000Y-117615000D01*
X129560000Y-117285000D01*
X129800000Y-117615000D01*
G36*
X129800000Y-117615000D02*
G01*
X129320000Y-117615000D01*
X129560000Y-117285000D01*
X129800000Y-117615000D01*
G37*
%TO.C,R5*%
X155477500Y-66412258D02*
X155477500Y-65937742D01*
X156522500Y-66412258D02*
X156522500Y-65937742D01*
%TD*%
%LPC*%
D12*
%TO.C,D2*%
X150540000Y-74530000D03*
D13*
X148000000Y-74530000D03*
%TD*%
D14*
%TO.C,SW2*%
X127000000Y-124000000D03*
X133500000Y-124000000D03*
X127000000Y-128500000D03*
X133500000Y-128500000D03*
%TD*%
D15*
%TO.C,BT1*%
X83700000Y-43865000D03*
D16*
X92030000Y-59865000D03*
X147230000Y-43865000D03*
D17*
X80300000Y-51865000D03*
X158960000Y-51865000D03*
%TD*%
D18*
%TO.C,U1*%
X108000000Y-88000000D03*
X108000000Y-89270000D03*
X108000000Y-90540000D03*
X108000000Y-91810000D03*
X108000000Y-93080000D03*
X108000000Y-94350000D03*
X108000000Y-95620000D03*
X108000000Y-96890000D03*
X108000000Y-98160000D03*
X108000000Y-99430000D03*
X108000000Y-100700000D03*
X108000000Y-101970000D03*
X108000000Y-103240000D03*
X108000000Y-104510000D03*
D19*
X111040000Y-105760000D03*
X112310000Y-105760000D03*
X113580000Y-105760000D03*
X114850000Y-105760000D03*
X116120000Y-105760000D03*
X117390000Y-105760000D03*
X118660000Y-105760000D03*
X119930000Y-105760000D03*
X121200000Y-105760000D03*
X122470000Y-105760000D03*
D18*
X125500000Y-104510000D03*
X125500000Y-103240000D03*
X125500000Y-101970000D03*
X125500000Y-100700000D03*
X125500000Y-99430000D03*
X125500000Y-98160000D03*
X125500000Y-96890000D03*
X125500000Y-95620000D03*
X125500000Y-94350000D03*
X125500000Y-93080000D03*
X125500000Y-91810000D03*
X125500000Y-90540000D03*
X125500000Y-89270000D03*
X125500000Y-88000000D03*
D20*
X114545000Y-94577500D03*
X114545000Y-96102500D03*
X115307500Y-93815000D03*
X115307500Y-95340000D03*
X115307500Y-96865000D03*
X116070000Y-94577500D03*
D21*
X116070000Y-95340000D03*
D20*
X116070000Y-96102500D03*
X116832500Y-93815000D03*
X116832500Y-95340000D03*
X116832500Y-96865000D03*
X117595000Y-94577500D03*
X117595000Y-96102500D03*
%TD*%
D22*
%TO.C,U2*%
X136950000Y-108850000D03*
X138050000Y-108850000D03*
X139150000Y-108850000D03*
X140250000Y-108850000D03*
X141350000Y-108850000D03*
X142450000Y-108850000D03*
X143550000Y-108850000D03*
X144650000Y-108850000D03*
X145750000Y-108850000D03*
X146850000Y-108850000D03*
X147950000Y-108850000D03*
X149050000Y-108850000D03*
D23*
X151800000Y-105400000D03*
X151800000Y-104300000D03*
X151800000Y-103200000D03*
X151800000Y-102100000D03*
X151800000Y-101000000D03*
X151800000Y-99900000D03*
X151800000Y-98800000D03*
X151800000Y-97700000D03*
X151800000Y-96600000D03*
D22*
X149050000Y-93150000D03*
X147950000Y-93150000D03*
X146850000Y-93150000D03*
X145750000Y-93150000D03*
X144650000Y-93150000D03*
X143550000Y-93150000D03*
X142450000Y-93150000D03*
X141350000Y-93150000D03*
X140250000Y-93150000D03*
X139150000Y-93150000D03*
X138050000Y-93150000D03*
X136950000Y-93150000D03*
D23*
X134200000Y-96600000D03*
X134200000Y-97700000D03*
X134200000Y-98800000D03*
X134200000Y-99900000D03*
X134200000Y-101000000D03*
X134200000Y-102100000D03*
X134200000Y-103200000D03*
X134200000Y-104300000D03*
X134200000Y-105400000D03*
%TD*%
D24*
%TO.C,U3*%
X94000000Y-99000000D03*
X92900000Y-99000000D03*
X91800000Y-99000000D03*
X90700000Y-99000000D03*
X89600000Y-99000000D03*
X88500000Y-99000000D03*
X87400000Y-99000000D03*
X84400000Y-99000000D03*
X83300000Y-99000000D03*
X82200000Y-99000000D03*
X81100000Y-99000000D03*
X80000000Y-99000000D03*
X80000000Y-111000000D03*
X81100000Y-111000000D03*
X82200000Y-111000000D03*
X83300000Y-111000000D03*
X84400000Y-111000000D03*
X87400000Y-111000000D03*
X88500000Y-111000000D03*
X89600000Y-111000000D03*
X90700000Y-111000000D03*
X91800000Y-111000000D03*
X92900000Y-111000000D03*
X94000000Y-111000000D03*
%TD*%
D25*
%TO.C,R6*%
X144000000Y-77000000D03*
X144000000Y-75350000D03*
%TD*%
%TO.C,R3*%
X103000000Y-92650000D03*
X103000000Y-91000000D03*
%TD*%
D26*
%TO.C,C6*%
X148530000Y-127000000D03*
X150080000Y-127000000D03*
%TD*%
D27*
%TO.C,U7*%
X80000000Y-82000000D03*
D28*
X80975000Y-82350000D03*
X81625000Y-82350000D03*
X82275000Y-82350000D03*
X82925000Y-82350000D03*
X83575000Y-82350000D03*
D27*
X84300000Y-82000000D03*
X84300000Y-78000000D03*
D28*
X83575000Y-77650000D03*
X82925000Y-77650000D03*
X82275000Y-77650000D03*
X81625000Y-77650000D03*
X80975000Y-77650000D03*
D27*
X80000000Y-78000000D03*
D29*
X81195000Y-80950000D03*
X82145000Y-80950000D03*
X83095000Y-80950000D03*
X80245000Y-80000000D03*
X81195000Y-80000000D03*
X82145000Y-80000000D03*
D30*
X82145000Y-80000000D03*
D29*
X83095000Y-80000000D03*
X84045000Y-80000000D03*
X81195000Y-79050000D03*
X82145000Y-79050000D03*
X83095000Y-79050000D03*
%TD*%
D25*
%TO.C,R4*%
X129000000Y-103650000D03*
X129000000Y-102000000D03*
%TD*%
D31*
%TO.C,C2*%
X86000000Y-85450000D03*
X86000000Y-87000000D03*
%TD*%
D32*
%TO.C,C7*%
X162550000Y-96000000D03*
X161000000Y-96000000D03*
%TD*%
D14*
%TO.C,SW3*%
X99500000Y-124050000D03*
X106000000Y-124050000D03*
X99500000Y-128550000D03*
X106000000Y-128550000D03*
%TD*%
D26*
%TO.C,C8*%
X89000000Y-67000000D03*
X90550000Y-67000000D03*
%TD*%
D33*
%TO.C,R2*%
X143000000Y-112000000D03*
X144650000Y-112000000D03*
%TD*%
D26*
%TO.C,C4*%
X148530000Y-112000000D03*
X150080000Y-112000000D03*
%TD*%
D12*
%TO.C,D3*%
X150540000Y-67060000D03*
D13*
X148000000Y-67060000D03*
%TD*%
D34*
%TO.C,J1*%
X114350000Y-127000000D03*
X115000000Y-127000000D03*
X115650000Y-127000000D03*
X116300000Y-127000000D03*
X116950000Y-127000000D03*
D35*
X112850000Y-126750000D03*
D36*
X115650000Y-128900000D03*
D35*
X118450000Y-126750000D03*
%TD*%
D33*
%TO.C,R1*%
X128000000Y-106000000D03*
X129650000Y-106000000D03*
%TD*%
D12*
%TO.C,D1*%
X150540000Y-82000000D03*
D13*
X148000000Y-82000000D03*
%TD*%
D37*
%TO.C,C3*%
X109000000Y-111550000D03*
X109000000Y-110000000D03*
%TD*%
D26*
%TO.C,C1*%
X94000000Y-89000000D03*
X95550000Y-89000000D03*
%TD*%
D38*
%TO.C,U4*%
X81000000Y-72000000D03*
X82270000Y-72000000D03*
X83540000Y-72000000D03*
X84810000Y-72000000D03*
X84810000Y-67050000D03*
X83540000Y-67050000D03*
X82270000Y-67050000D03*
X81000000Y-67050000D03*
D39*
X82905000Y-69525000D03*
%TD*%
D31*
%TO.C,C5*%
X100000000Y-110000000D03*
X100000000Y-111550000D03*
%TD*%
D37*
%TO.C,C9*%
X129000000Y-96550000D03*
X129000000Y-95000000D03*
%TD*%
D40*
%TO.C,J2*%
X160540000Y-86540000D03*
D41*
X163080000Y-84000000D03*
X158000000Y-84000000D03*
X163080000Y-89080000D03*
X158000000Y-89080000D03*
%TD*%
D42*
%TO.C,U5*%
X129580000Y-116275000D03*
X129580000Y-113975000D03*
D43*
X123280000Y-113975000D03*
D42*
X129580000Y-111675000D03*
%TD*%
D25*
%TO.C,R5*%
X156000000Y-67000000D03*
X156000000Y-65350000D03*
%TD*%
%LPD*%
M02*
