%TF.GenerationSoftware,KiCad,Pcbnew,9.0.0*%
%TF.CreationDate,2025-07-02T16:13:02+05:30*%
%TF.ProjectId,ESP32 GPS + GSM Tracker,45535033-3220-4475-9053-202b2047534d,rev?*%
%TF.SameCoordinates,Original*%
%TF.FileFunction,Paste,Top*%
%TF.FilePolarity,Positive*%
%FSLAX46Y46*%
G04 Gerber Fmt 4.6, Leading zero omitted, Abs format (unit mm)*
G04 Created by KiCad (PCBNEW 9.0.0) date 2025-07-02 16:13:02*
%MOMM*%
%LPD*%
G01*
G04 APERTURE LIST*
G04 Aperture macros list*
%AMRoundRect*
0 Rectangle with rounded corners*
0 $1 Rounding radius*
0 $2 $3 $4 $5 $6 $7 $8 $9 X,Y pos of 4 corners*
0 Add a 4 corners polygon primitive as box body*
4,1,4,$2,$3,$4,$5,$6,$7,$8,$9,$2,$3,0*
0 Add four circle primitives for the rounded corners*
1,1,$1+$1,$2,$3*
1,1,$1+$1,$4,$5*
1,1,$1+$1,$6,$7*
1,1,$1+$1,$8,$9*
0 Add four rect primitives between the rounded corners*
20,1,$1+$1,$2,$3,$4,$5,0*
20,1,$1+$1,$4,$5,$6,$7,0*
20,1,$1+$1,$6,$7,$8,$9,0*
20,1,$1+$1,$8,$9,$2,$3,0*%
G04 Aperture macros list end*
%ADD10R,7.340000X6.350000*%
%ADD11R,1.500000X0.900000*%
%ADD12R,0.900000X1.500000*%
%ADD13R,1.050000X1.050000*%
%ADD14O,0.550000X1.800000*%
%ADD15O,1.800000X0.550000*%
%ADD16RoundRect,0.200000X-0.200000X0.700000X-0.200000X-0.700000X0.200000X-0.700000X0.200000X0.700000X0*%
%ADD17RoundRect,0.200000X0.275000X-0.200000X0.275000X0.200000X-0.275000X0.200000X-0.275000X-0.200000X0*%
%ADD18RoundRect,0.225000X-0.225000X-0.250000X0.225000X-0.250000X0.225000X0.250000X-0.225000X0.250000X0*%
%ADD19RoundRect,0.050050X0.274950X-0.424950X0.274950X0.424950X-0.274950X0.424950X-0.274950X-0.424950X0*%
%ADD20RoundRect,0.049800X0.525200X-0.250200X0.525200X0.250200X-0.525200X0.250200X-0.525200X-0.250200X0*%
%ADD21RoundRect,0.050000X0.200000X-0.650000X0.200000X0.650000X-0.200000X0.650000X-0.200000X-0.650000X0*%
%ADD22RoundRect,0.050050X0.124950X-0.299950X0.124950X0.299950X-0.124950X0.299950X-0.124950X-0.299950X0*%
%ADD23RoundRect,0.225000X-0.250000X0.225000X-0.250000X-0.225000X0.250000X-0.225000X0.250000X0.225000X0*%
%ADD24RoundRect,0.225000X0.225000X0.250000X-0.225000X0.250000X-0.225000X-0.250000X0.225000X-0.250000X0*%
%ADD25RoundRect,0.200000X-0.200000X-0.275000X0.200000X-0.275000X0.200000X0.275000X-0.200000X0.275000X0*%
%ADD26R,0.450000X1.500000*%
%ADD27RoundRect,0.225000X0.250000X-0.225000X0.250000X0.225000X-0.250000X0.225000X-0.250000X-0.225000X0*%
%ADD28RoundRect,0.250000X0.440000X-0.255000X0.440000X0.255000X-0.440000X0.255000X-0.440000X-0.255000X0*%
%ADD29RoundRect,0.150000X0.150000X-0.825000X0.150000X0.825000X-0.150000X0.825000X-0.150000X-0.825000X0*%
%ADD30RoundRect,0.375000X0.625000X0.375000X-0.625000X0.375000X-0.625000X-0.375000X0.625000X-0.375000X0*%
%ADD31RoundRect,0.500000X0.500000X1.400000X-0.500000X1.400000X-0.500000X-1.400000X0.500000X-1.400000X0*%
G04 APERTURE END LIST*
D10*
%TO.C,BT1*%
X80300000Y-51865000D03*
X158960000Y-51865000D03*
%TD*%
D11*
%TO.C,U1*%
X108000000Y-88000000D03*
X108000000Y-89270000D03*
X108000000Y-90540000D03*
X108000000Y-91810000D03*
X108000000Y-93080000D03*
X108000000Y-94350000D03*
X108000000Y-95620000D03*
X108000000Y-96890000D03*
X108000000Y-98160000D03*
X108000000Y-99430000D03*
X108000000Y-100700000D03*
X108000000Y-101970000D03*
X108000000Y-103240000D03*
X108000000Y-104510000D03*
D12*
X111040000Y-105760000D03*
X112310000Y-105760000D03*
X113580000Y-105760000D03*
X114850000Y-105760000D03*
X116120000Y-105760000D03*
X117390000Y-105760000D03*
X118660000Y-105760000D03*
X119930000Y-105760000D03*
X121200000Y-105760000D03*
X122470000Y-105760000D03*
D11*
X125500000Y-104510000D03*
X125500000Y-103240000D03*
X125500000Y-101970000D03*
X125500000Y-100700000D03*
X125500000Y-99430000D03*
X125500000Y-98160000D03*
X125500000Y-96890000D03*
X125500000Y-95620000D03*
X125500000Y-94350000D03*
X125500000Y-93080000D03*
X125500000Y-91810000D03*
X125500000Y-90540000D03*
X125500000Y-89270000D03*
X125500000Y-88000000D03*
D13*
X114545000Y-93815000D03*
X114545000Y-95340000D03*
X114545000Y-96865000D03*
X116070000Y-93815000D03*
X116070000Y-95340000D03*
X116070000Y-96865000D03*
X117595000Y-93815000D03*
X117595000Y-95340000D03*
X117595000Y-96865000D03*
%TD*%
D14*
%TO.C,U2*%
X136950000Y-108950000D03*
X138050000Y-108950000D03*
X139150000Y-108950000D03*
X140250000Y-108950000D03*
X141350000Y-108950000D03*
X142450000Y-108950000D03*
X143550000Y-108950000D03*
X144650000Y-108950000D03*
X145750000Y-108950000D03*
X146850000Y-108950000D03*
X147950000Y-108950000D03*
X149050000Y-108950000D03*
D15*
X134100000Y-105400000D03*
X151900000Y-105400000D03*
X134100000Y-104300000D03*
X151900000Y-104300000D03*
X134100000Y-103200000D03*
X151900000Y-103200000D03*
X134100000Y-102100000D03*
X151900000Y-102100000D03*
X134100000Y-101000000D03*
X151900000Y-101000000D03*
X134100000Y-99900000D03*
X151900000Y-99900000D03*
X134100000Y-98800000D03*
X151900000Y-98800000D03*
X134100000Y-97700000D03*
X151900000Y-97700000D03*
X134100000Y-96600000D03*
X151900000Y-96600000D03*
D14*
X136950000Y-93050000D03*
X138050000Y-93050000D03*
X139150000Y-93050000D03*
X140250000Y-93050000D03*
X141350000Y-93050000D03*
X142450000Y-93050000D03*
X143550000Y-93050000D03*
X144650000Y-93050000D03*
X145750000Y-93050000D03*
X146850000Y-93050000D03*
X147950000Y-93050000D03*
X149050000Y-93050000D03*
%TD*%
D16*
%TO.C,U3*%
X94000000Y-99000000D03*
X92900000Y-99000000D03*
X91800000Y-99000000D03*
X90700000Y-99000000D03*
X89600000Y-99000000D03*
X88500000Y-99000000D03*
X87400000Y-99000000D03*
X84400000Y-99000000D03*
X83300000Y-99000000D03*
X82200000Y-99000000D03*
X81100000Y-99000000D03*
X80000000Y-99000000D03*
X80000000Y-111000000D03*
X81100000Y-111000000D03*
X82200000Y-111000000D03*
X83300000Y-111000000D03*
X84400000Y-111000000D03*
X87400000Y-111000000D03*
X88500000Y-111000000D03*
X89600000Y-111000000D03*
X90700000Y-111000000D03*
X91800000Y-111000000D03*
X92900000Y-111000000D03*
X94000000Y-111000000D03*
%TD*%
D17*
%TO.C,R6*%
X144000000Y-77000000D03*
X144000000Y-75350000D03*
%TD*%
%TO.C,R3*%
X103000000Y-92650000D03*
X103000000Y-91000000D03*
%TD*%
D18*
%TO.C,C6*%
X148530000Y-127000000D03*
X150080000Y-127000000D03*
%TD*%
D19*
%TO.C,U7*%
X81670000Y-80625000D03*
X82620000Y-80625000D03*
D20*
X80470000Y-80425000D03*
X83820000Y-80425000D03*
X80470000Y-79575000D03*
X83820000Y-79575000D03*
D19*
X81670000Y-79375000D03*
X82620000Y-79375000D03*
D21*
X80000000Y-82000000D03*
D22*
X80975000Y-82350000D03*
X81625000Y-82350000D03*
X82275000Y-82350000D03*
X82925000Y-82350000D03*
X83575000Y-82350000D03*
D21*
X84300000Y-82000000D03*
X84300000Y-78000000D03*
D22*
X83575000Y-77650000D03*
X82925000Y-77650000D03*
X82275000Y-77650000D03*
X81625000Y-77650000D03*
X80975000Y-77650000D03*
D21*
X80000000Y-78000000D03*
%TD*%
D17*
%TO.C,R4*%
X129000000Y-103650000D03*
X129000000Y-102000000D03*
%TD*%
D23*
%TO.C,C2*%
X86000000Y-85450000D03*
X86000000Y-87000000D03*
%TD*%
D24*
%TO.C,C7*%
X162550000Y-96000000D03*
X161000000Y-96000000D03*
%TD*%
D18*
%TO.C,C8*%
X89000000Y-67000000D03*
X90550000Y-67000000D03*
%TD*%
D25*
%TO.C,R2*%
X143000000Y-112000000D03*
X144650000Y-112000000D03*
%TD*%
D18*
%TO.C,C4*%
X148530000Y-112000000D03*
X150080000Y-112000000D03*
%TD*%
D26*
%TO.C,J1*%
X114350000Y-127000000D03*
X115000000Y-127000000D03*
X115650000Y-127000000D03*
X116300000Y-127000000D03*
X116950000Y-127000000D03*
%TD*%
D25*
%TO.C,R1*%
X128000000Y-106000000D03*
X129650000Y-106000000D03*
%TD*%
D27*
%TO.C,C3*%
X109000000Y-111550000D03*
X109000000Y-110000000D03*
%TD*%
D18*
%TO.C,C1*%
X94000000Y-89000000D03*
X95550000Y-89000000D03*
%TD*%
D28*
%TO.C,U4*%
X82080000Y-70125000D03*
X83730000Y-70125000D03*
X82080000Y-68925000D03*
X83730000Y-68925000D03*
D29*
X81000000Y-72000000D03*
X82270000Y-72000000D03*
X83540000Y-72000000D03*
X84810000Y-72000000D03*
X84810000Y-67050000D03*
X83540000Y-67050000D03*
X82270000Y-67050000D03*
X81000000Y-67050000D03*
%TD*%
D23*
%TO.C,C5*%
X100000000Y-110000000D03*
X100000000Y-111550000D03*
%TD*%
D27*
%TO.C,C9*%
X129000000Y-96550000D03*
X129000000Y-95000000D03*
%TD*%
D30*
%TO.C,U5*%
X129580000Y-116275000D03*
X129580000Y-113975000D03*
D31*
X123280000Y-113975000D03*
D30*
X129580000Y-111675000D03*
%TD*%
D17*
%TO.C,R5*%
X156000000Y-67000000D03*
X156000000Y-65350000D03*
%TD*%
M02*
