%TF.GenerationSoftware,KiCad,Pcbnew,9.0.0*%
%TF.CreationDate,2025-07-02T16:13:02+05:30*%
%TF.ProjectId,ESP32 GPS + GSM Tracker,45535033-3220-4475-9053-202b2047534d,rev?*%
%TF.SameCoordinates,Original*%
%TF.FileFunction,Copper,L1,Top*%
%TF.FilePolarity,Positive*%
%FSLAX46Y46*%
G04 Gerber Fmt 4.6, Leading zero omitted, Abs format (unit mm)*
G04 Created by KiCad (PCBNEW 9.0.0) date 2025-07-02 16:13:02*
%MOMM*%
%LPD*%
G01*
G04 APERTURE LIST*
G04 Aperture macros list*
%AMRoundRect*
0 Rectangle with rounded corners*
0 $1 Rounding radius*
0 $2 $3 $4 $5 $6 $7 $8 $9 X,Y pos of 4 corners*
0 Add a 4 corners polygon primitive as box body*
4,1,4,$2,$3,$4,$5,$6,$7,$8,$9,$2,$3,0*
0 Add four circle primitives for the rounded corners*
1,1,$1+$1,$2,$3*
1,1,$1+$1,$4,$5*
1,1,$1+$1,$6,$7*
1,1,$1+$1,$8,$9*
0 Add four rect primitives between the rounded corners*
20,1,$1+$1,$2,$3,$4,$5,0*
20,1,$1+$1,$4,$5,$6,$7,0*
20,1,$1+$1,$6,$7,$8,$9,0*
20,1,$1+$1,$8,$9,$2,$3,0*%
%AMFreePoly0*
4,1,13,0.750000,1.250000,1.250000,1.250000,1.250000,-1.250000,0.750000,-1.250000,0.750000,-2.300000,-0.750000,-2.300000,-0.750000,-1.250000,-1.250000,-1.250000,-1.250000,1.250000,-0.750000,1.250000,-0.750000,2.300000,0.750000,2.300000,0.750000,1.250000,0.750000,1.250000,$1*%
G04 Aperture macros list end*
%TA.AperFunction,ComponentPad*%
%ADD10R,1.800000X1.800000*%
%TD*%
%TA.AperFunction,ComponentPad*%
%ADD11C,1.800000*%
%TD*%
%TA.AperFunction,ComponentPad*%
%ADD12C,2.000000*%
%TD*%
%TA.AperFunction,SMDPad,CuDef*%
%ADD13R,7.340000X6.350000*%
%TD*%
%TA.AperFunction,SMDPad,CuDef*%
%ADD14R,1.500000X0.900000*%
%TD*%
%TA.AperFunction,SMDPad,CuDef*%
%ADD15R,0.900000X1.500000*%
%TD*%
%TA.AperFunction,SMDPad,CuDef*%
%ADD16R,1.050000X1.050000*%
%TD*%
%TA.AperFunction,HeatsinkPad*%
%ADD17C,0.600000*%
%TD*%
%TA.AperFunction,HeatsinkPad*%
%ADD18R,4.200000X4.200000*%
%TD*%
%TA.AperFunction,SMDPad,CuDef*%
%ADD19O,0.600000X1.600000*%
%TD*%
%TA.AperFunction,SMDPad,CuDef*%
%ADD20O,1.600000X0.600000*%
%TD*%
%TA.AperFunction,SMDPad,CuDef*%
%ADD21RoundRect,0.200000X-0.200000X0.700000X-0.200000X-0.700000X0.200000X-0.700000X0.200000X0.700000X0*%
%TD*%
%TA.AperFunction,SMDPad,CuDef*%
%ADD22RoundRect,0.200000X0.275000X-0.200000X0.275000X0.200000X-0.275000X0.200000X-0.275000X-0.200000X0*%
%TD*%
%TA.AperFunction,SMDPad,CuDef*%
%ADD23RoundRect,0.225000X-0.225000X-0.250000X0.225000X-0.250000X0.225000X0.250000X-0.225000X0.250000X0*%
%TD*%
%TA.AperFunction,SMDPad,CuDef*%
%ADD24RoundRect,0.050000X0.200000X-0.650000X0.200000X0.650000X-0.200000X0.650000X-0.200000X-0.650000X0*%
%TD*%
%TA.AperFunction,SMDPad,CuDef*%
%ADD25RoundRect,0.050050X0.124950X-0.299950X0.124950X0.299950X-0.124950X0.299950X-0.124950X-0.299950X0*%
%TD*%
%TA.AperFunction,ComponentPad*%
%ADD26C,0.500000*%
%TD*%
%TA.AperFunction,SMDPad,CuDef*%
%ADD27FreePoly0,90.000000*%
%TD*%
%TA.AperFunction,SMDPad,CuDef*%
%ADD28RoundRect,0.225000X-0.250000X0.225000X-0.250000X-0.225000X0.250000X-0.225000X0.250000X0.225000X0*%
%TD*%
%TA.AperFunction,SMDPad,CuDef*%
%ADD29RoundRect,0.225000X0.225000X0.250000X-0.225000X0.250000X-0.225000X-0.250000X0.225000X-0.250000X0*%
%TD*%
%TA.AperFunction,SMDPad,CuDef*%
%ADD30RoundRect,0.200000X-0.200000X-0.275000X0.200000X-0.275000X0.200000X0.275000X-0.200000X0.275000X0*%
%TD*%
%TA.AperFunction,SMDPad,CuDef*%
%ADD31R,0.450000X1.500000*%
%TD*%
%TA.AperFunction,HeatsinkPad*%
%ADD32O,1.800000X1.100000*%
%TD*%
%TA.AperFunction,HeatsinkPad*%
%ADD33O,2.200000X1.100000*%
%TD*%
%TA.AperFunction,SMDPad,CuDef*%
%ADD34RoundRect,0.225000X0.250000X-0.225000X0.250000X0.225000X-0.250000X0.225000X-0.250000X-0.225000X0*%
%TD*%
%TA.AperFunction,SMDPad,CuDef*%
%ADD35RoundRect,0.150000X0.150000X-0.825000X0.150000X0.825000X-0.150000X0.825000X-0.150000X-0.825000X0*%
%TD*%
%TA.AperFunction,HeatsinkPad*%
%ADD36C,0.500000*%
%TD*%
%TA.AperFunction,HeatsinkPad*%
%ADD37R,3.300000X2.410000*%
%TD*%
%TA.AperFunction,ComponentPad*%
%ADD38C,2.050000*%
%TD*%
%TA.AperFunction,ComponentPad*%
%ADD39C,2.250000*%
%TD*%
%TA.AperFunction,SMDPad,CuDef*%
%ADD40RoundRect,0.375000X0.625000X0.375000X-0.625000X0.375000X-0.625000X-0.375000X0.625000X-0.375000X0*%
%TD*%
%TA.AperFunction,SMDPad,CuDef*%
%ADD41RoundRect,0.500000X0.500000X1.400000X-0.500000X1.400000X-0.500000X-1.400000X0.500000X-1.400000X0*%
%TD*%
%TA.AperFunction,ViaPad*%
%ADD42C,0.600000*%
%TD*%
%TA.AperFunction,Conductor*%
%ADD43C,0.200000*%
%TD*%
G04 APERTURE END LIST*
D10*
%TO.P,D2,1,K*%
%TO.N,GND*%
X150540000Y-74530000D03*
D11*
%TO.P,D2,2,A*%
%TO.N,Net-(D2-A)*%
X148000000Y-74530000D03*
%TD*%
D12*
%TO.P,SW2,1,1*%
%TO.N,Net-(U1-IO25)*%
X127000000Y-124000000D03*
X133500000Y-124000000D03*
%TO.P,SW2,2,2*%
%TO.N,GND*%
X127000000Y-128500000D03*
X133500000Y-128500000D03*
%TD*%
D13*
%TO.P,BT1,1,+*%
%TO.N,Net-(BT1-+)*%
X80300000Y-51865000D03*
%TO.P,BT1,2,-*%
%TO.N,GND*%
X158960000Y-51865000D03*
%TD*%
D14*
%TO.P,U1,1,GND*%
%TO.N,GND*%
X108000000Y-88000000D03*
%TO.P,U1,2,VDD*%
%TO.N,Net-(U1-VDD)*%
X108000000Y-89270000D03*
%TO.P,U1,3,EN*%
%TO.N,Net-(U1-EN)*%
X108000000Y-90540000D03*
%TO.P,U1,4,SENSOR_VP*%
%TO.N,Net-(U1-SENSOR_VP)*%
X108000000Y-91810000D03*
%TO.P,U1,5,SENSOR_VN*%
%TO.N,Net-(U1-SENSOR_VN)*%
X108000000Y-93080000D03*
%TO.P,U1,6,IO34*%
%TO.N,unconnected-(U1-IO34-Pad6)*%
X108000000Y-94350000D03*
%TO.P,U1,7,IO35*%
%TO.N,unconnected-(U1-IO35-Pad7)*%
X108000000Y-95620000D03*
%TO.P,U1,8,IO32*%
%TO.N,unconnected-(U1-IO32-Pad8)*%
X108000000Y-96890000D03*
%TO.P,U1,9,IO33*%
%TO.N,unconnected-(U1-IO33-Pad9)*%
X108000000Y-98160000D03*
%TO.P,U1,10,IO25*%
%TO.N,Net-(U1-IO25)*%
X108000000Y-99430000D03*
%TO.P,U1,11,IO26*%
%TO.N,Net-(U1-IO26)*%
X108000000Y-100700000D03*
%TO.P,U1,12,IO27*%
%TO.N,Net-(U1-IO27)*%
X108000000Y-101970000D03*
%TO.P,U1,13,IO14*%
%TO.N,unconnected-(U1-IO14-Pad13)*%
X108000000Y-103240000D03*
%TO.P,U1,14,IO12*%
%TO.N,unconnected-(U1-IO12-Pad14)*%
X108000000Y-104510000D03*
D15*
%TO.P,U1,15,GND*%
%TO.N,GND*%
X111040000Y-105760000D03*
%TO.P,U1,16,IO13*%
%TO.N,Net-(U1-IO13)*%
X112310000Y-105760000D03*
%TO.P,U1,17,SHD/SD2*%
%TO.N,/3.3V*%
X113580000Y-105760000D03*
%TO.P,U1,18,SWP/SD3*%
%TO.N,unconnected-(U1-SWP{slash}SD3-Pad18)*%
X114850000Y-105760000D03*
%TO.P,U1,19,SCS/CMD*%
%TO.N,unconnected-(U1-SCS{slash}CMD-Pad19)*%
X116120000Y-105760000D03*
%TO.P,U1,20,SCK/CLK*%
%TO.N,unconnected-(U1-SCK{slash}CLK-Pad20)*%
X117390000Y-105760000D03*
%TO.P,U1,21,SDO/SD0*%
%TO.N,unconnected-(U1-SDO{slash}SD0-Pad21)*%
X118660000Y-105760000D03*
%TO.P,U1,22,SDI/SD1*%
%TO.N,unconnected-(U1-SDI{slash}SD1-Pad22)*%
X119930000Y-105760000D03*
%TO.P,U1,23,IO15*%
%TO.N,Net-(U1-IO15)*%
X121200000Y-105760000D03*
%TO.P,U1,24,IO2*%
%TO.N,unconnected-(U1-IO2-Pad24)*%
X122470000Y-105760000D03*
D14*
%TO.P,U1,25,IO0*%
%TO.N,unconnected-(U1-IO0-Pad25)*%
X125500000Y-104510000D03*
%TO.P,U1,26,IO4*%
%TO.N,unconnected-(U1-IO4-Pad26)*%
X125500000Y-103240000D03*
%TO.P,U1,27,IO16*%
%TO.N,unconnected-(U1-IO16-Pad27)*%
X125500000Y-101970000D03*
%TO.P,U1,28,IO17*%
%TO.N,Net-(U1-IO17)*%
X125500000Y-100700000D03*
%TO.P,U1,29,IO5*%
%TO.N,unconnected-(U1-IO5-Pad29)*%
X125500000Y-99430000D03*
%TO.P,U1,30,IO18*%
%TO.N,unconnected-(U1-IO18-Pad30)*%
X125500000Y-98160000D03*
%TO.P,U1,31,IO19*%
%TO.N,unconnected-(U1-IO19-Pad31)*%
X125500000Y-96890000D03*
%TO.P,U1,32,NC*%
%TO.N,unconnected-(U1-NC-Pad32)*%
X125500000Y-95620000D03*
%TO.P,U1,33,IO21*%
%TO.N,unconnected-(U1-IO21-Pad33)*%
X125500000Y-94350000D03*
%TO.P,U1,34,RXD0/IO3*%
%TO.N,unconnected-(U1-RXD0{slash}IO3-Pad34)*%
X125500000Y-93080000D03*
%TO.P,U1,35,TXD0/IO1*%
%TO.N,unconnected-(U1-TXD0{slash}IO1-Pad35)*%
X125500000Y-91810000D03*
%TO.P,U1,36,IO22*%
%TO.N,unconnected-(U1-IO22-Pad36)*%
X125500000Y-90540000D03*
%TO.P,U1,37,IO23*%
%TO.N,unconnected-(U1-IO23-Pad37)*%
X125500000Y-89270000D03*
%TO.P,U1,38,GND*%
%TO.N,GND*%
X125500000Y-88000000D03*
D16*
%TO.P,U1,39,GND*%
X114545000Y-93815000D03*
D17*
X114545000Y-94577500D03*
D16*
X114545000Y-95340000D03*
D17*
X114545000Y-96102500D03*
D16*
X114545000Y-96865000D03*
D17*
X115307500Y-93815000D03*
X115307500Y-95340000D03*
X115307500Y-96865000D03*
D16*
X116070000Y-93815000D03*
D17*
X116070000Y-94577500D03*
D16*
X116070000Y-95340000D03*
D18*
X116070000Y-95340000D03*
D17*
X116070000Y-96102500D03*
D16*
X116070000Y-96865000D03*
D17*
X116832500Y-93815000D03*
X116832500Y-95340000D03*
X116832500Y-96865000D03*
D16*
X117595000Y-93815000D03*
D17*
X117595000Y-94577500D03*
D16*
X117595000Y-95340000D03*
D17*
X117595000Y-96102500D03*
D16*
X117595000Y-96865000D03*
%TD*%
D19*
%TO.P,U2,1,UART1_TXD*%
%TO.N,Net-(U1-IO15)*%
X136950000Y-108850000D03*
%TO.P,U2,2,UART1_RXD*%
%TO.N,Net-(U2-UART1_RXD)*%
X138050000Y-108850000D03*
%TO.P,U2,3,UART1_RTS*%
%TO.N,unconnected-(U2-UART1_RTS-Pad3)*%
X139150000Y-108850000D03*
%TO.P,U2,4,UART1_CTS*%
%TO.N,unconnected-(U2-UART1_CTS-Pad4)*%
X140250000Y-108850000D03*
%TO.P,U2,5,UART1_DCD*%
%TO.N,unconnected-(U2-UART1_DCD-Pad5)*%
X141350000Y-108850000D03*
%TO.P,U2,6,UART1_DTR*%
%TO.N,unconnected-(U2-UART1_DTR-Pad6)*%
X142450000Y-108850000D03*
%TO.P,U2,7,UART1_RI*%
%TO.N,unconnected-(U2-UART1_RI-Pad7)*%
X143550000Y-108850000D03*
%TO.P,U2,8,GND*%
%TO.N,GND*%
X144650000Y-108850000D03*
%TO.P,U2,9,MICP*%
%TO.N,unconnected-(U2-MICP-Pad9)*%
X145750000Y-108850000D03*
%TO.P,U2,10,MICN*%
%TO.N,unconnected-(U2-MICN-Pad10)*%
X146850000Y-108850000D03*
%TO.P,U2,11,SPKP*%
%TO.N,unconnected-(U2-SPKP-Pad11)*%
X147950000Y-108850000D03*
%TO.P,U2,12,SPKN*%
%TO.N,unconnected-(U2-SPKN-Pad12)*%
X149050000Y-108850000D03*
D20*
%TO.P,U2,13,GND*%
%TO.N,GND*%
X151800000Y-105400000D03*
%TO.P,U2,14,SIM_DET*%
%TO.N,unconnected-(U2-SIM_DET-Pad14)*%
X151800000Y-104300000D03*
%TO.P,U2,15,SIM_DATA*%
%TO.N,unconnected-(U2-SIM_DATA-Pad15)*%
X151800000Y-103200000D03*
%TO.P,U2,16,SIM_CLK*%
%TO.N,unconnected-(U2-SIM_CLK-Pad16)*%
X151800000Y-102100000D03*
%TO.P,U2,17,SIM_RST*%
%TO.N,unconnected-(U2-SIM_RST-Pad17)*%
X151800000Y-101000000D03*
%TO.P,U2,18,SIM_VDD*%
%TO.N,unconnected-(U2-SIM_VDD-Pad18)*%
X151800000Y-99900000D03*
%TO.P,U2,19,GND*%
%TO.N,GND*%
X151800000Y-98800000D03*
%TO.P,U2,20,BT_ANT*%
%TO.N,unconnected-(U2-BT_ANT-Pad20)*%
X151800000Y-97700000D03*
%TO.P,U2,21,GND*%
%TO.N,GND*%
X151800000Y-96600000D03*
D19*
%TO.P,U2,22,UART2_TXD*%
%TO.N,/3.3V*%
X149050000Y-93150000D03*
%TO.P,U2,23,UART2_RXD*%
%TO.N,Net-(U1-IO13)*%
X147950000Y-93150000D03*
%TO.P,U2,24,USB_VBUS*%
%TO.N,unconnected-(U2-USB_VBUS-Pad24)*%
X146850000Y-93150000D03*
%TO.P,U2,25,USB_DP*%
%TO.N,unconnected-(U2-USB_DP-Pad25)*%
X145750000Y-93150000D03*
%TO.P,U2,26,USB_DM*%
%TO.N,unconnected-(U2-USB_DM-Pad26)*%
X144650000Y-93150000D03*
%TO.P,U2,27,GND*%
%TO.N,GND*%
X143550000Y-93150000D03*
%TO.P,U2,28,VRTC*%
%TO.N,unconnected-(U2-VRTC-Pad28)*%
X142450000Y-93150000D03*
%TO.P,U2,29,RF_SYNC*%
%TO.N,unconnected-(U2-RF_SYNC-Pad29)*%
X141350000Y-93150000D03*
%TO.P,U2,30,GND*%
%TO.N,GND*%
X140250000Y-93150000D03*
%TO.P,U2,31,GND*%
X139150000Y-93150000D03*
%TO.P,U2,32,GSM_ANT*%
%TO.N,Net-(J2-In)*%
X138050000Y-93150000D03*
%TO.P,U2,33,GND*%
%TO.N,GND*%
X136950000Y-93150000D03*
D20*
%TO.P,U2,34,VBAT*%
%TO.N,/4V*%
X134200000Y-96600000D03*
%TO.P,U2,35,VBAT*%
X134200000Y-97700000D03*
%TO.P,U2,36,GND*%
%TO.N,GND*%
X134200000Y-98800000D03*
%TO.P,U2,37,GND*%
X134200000Y-99900000D03*
%TO.P,U2,38,ADC*%
%TO.N,unconnected-(U2-ADC-Pad38)*%
X134200000Y-101000000D03*
%TO.P,U2,39,~{PWRKEY}*%
%TO.N,Net-(U2-~{PWRKEY})*%
X134200000Y-102100000D03*
%TO.P,U2,40,VDD_EXT*%
%TO.N,unconnected-(U2-VDD_EXT-Pad40)*%
X134200000Y-103200000D03*
%TO.P,U2,41,NETLIGHT*%
%TO.N,Net-(U2-NETLIGHT)*%
X134200000Y-104300000D03*
%TO.P,U2,42,STATUS*%
%TO.N,unconnected-(U2-STATUS-Pad42)*%
X134200000Y-105400000D03*
%TD*%
D21*
%TO.P,U3,1,~{SAFEBOOT}*%
%TO.N,unconnected-(U3-~{SAFEBOOT}-Pad1)*%
X94000000Y-99000000D03*
%TO.P,U3,2,D_SEL*%
%TO.N,unconnected-(U3-D_SEL-Pad2)*%
X92900000Y-99000000D03*
%TO.P,U3,3,TIMEPULSE*%
%TO.N,unconnected-(U3-TIMEPULSE-Pad3)*%
X91800000Y-99000000D03*
%TO.P,U3,4,EXTINT*%
%TO.N,unconnected-(U3-EXTINT-Pad4)*%
X90700000Y-99000000D03*
%TO.P,U3,5,USB_DM*%
%TO.N,unconnected-(U3-USB_DM-Pad5)*%
X89600000Y-99000000D03*
%TO.P,U3,6,USB_DP*%
%TO.N,unconnected-(U3-USB_DP-Pad6)*%
X88500000Y-99000000D03*
%TO.P,U3,7,VDD_USB*%
%TO.N,unconnected-(U3-VDD_USB-Pad7)*%
X87400000Y-99000000D03*
%TO.P,U3,8,~{RESET}*%
%TO.N,unconnected-(U3-~{RESET}-Pad8)*%
X84400000Y-99000000D03*
%TO.P,U3,9,VCC_RF*%
%TO.N,unconnected-(U3-VCC_RF-Pad9)*%
X83300000Y-99000000D03*
%TO.P,U3,10,GND*%
%TO.N,GND*%
X82200000Y-99000000D03*
%TO.P,U3,11,RF_IN*%
%TO.N,unconnected-(U3-RF_IN-Pad11)*%
X81100000Y-99000000D03*
%TO.P,U3,12,GND*%
%TO.N,GND*%
X80000000Y-99000000D03*
%TO.P,U3,13,GND*%
X80000000Y-111000000D03*
%TO.P,U3,14,LNA_EN*%
%TO.N,unconnected-(U3-LNA_EN-Pad14)*%
X81100000Y-111000000D03*
%TO.P,U3,15,RESERVED*%
%TO.N,unconnected-(U3-RESERVED-Pad15)*%
X82200000Y-111000000D03*
%TO.P,U3,16,RESERVED*%
%TO.N,unconnected-(U3-RESERVED-Pad16)*%
X83300000Y-111000000D03*
%TO.P,U3,17,RESERVED*%
%TO.N,unconnected-(U3-RESERVED-Pad17)*%
X84400000Y-111000000D03*
%TO.P,U3,18,SDA/~{SPI_CS}*%
%TO.N,unconnected-(U3-SDA{slash}~{SPI_CS}-Pad18)*%
X87400000Y-111000000D03*
%TO.P,U3,19,SCL/SPI_CLK*%
%TO.N,unconnected-(U3-SCL{slash}SPI_CLK-Pad19)*%
X88500000Y-111000000D03*
%TO.P,U3,20,TXD/SPI_MISO*%
%TO.N,Net-(U1-SENSOR_VP)*%
X89600000Y-111000000D03*
%TO.P,U3,21,RXD/SPI_MOSI*%
%TO.N,Net-(U1-SENSOR_VN)*%
X90700000Y-111000000D03*
%TO.P,U3,22,V_BCKP*%
%TO.N,unconnected-(U3-V_BCKP-Pad22)*%
X91800000Y-111000000D03*
%TO.P,U3,23,VCC*%
%TO.N,/4V*%
X92900000Y-111000000D03*
%TO.P,U3,24,GND*%
%TO.N,GND*%
X94000000Y-111000000D03*
%TD*%
D22*
%TO.P,R6,1*%
%TO.N,Net-(U2-~{PWRKEY})*%
X144000000Y-77000000D03*
%TO.P,R6,2*%
%TO.N,Net-(D3-A)*%
X144000000Y-75350000D03*
%TD*%
%TO.P,R3,1*%
%TO.N,/3.3V*%
X103000000Y-92650000D03*
%TO.P,R3,2*%
%TO.N,Net-(U1-EN)*%
X103000000Y-91000000D03*
%TD*%
D23*
%TO.P,C6,1*%
%TO.N,GND*%
X148530000Y-127000000D03*
%TO.P,C6,2*%
X150080000Y-127000000D03*
%TD*%
D24*
%TO.P,U7,1,VIN*%
%TO.N,Net-(BT1-+)*%
X80000000Y-82000000D03*
D25*
%TO.P,U7,2,EN*%
%TO.N,unconnected-(U7-EN-Pad2)*%
X80975000Y-82350000D03*
%TO.P,U7,3,PGND*%
%TO.N,GND*%
X81625000Y-82350000D03*
%TO.P,U7,4,DNC*%
%TO.N,unconnected-(U7-DNC-Pad4)*%
X82275000Y-82350000D03*
%TO.P,U7,5,DNC*%
%TO.N,unconnected-(U7-DNC-Pad5)*%
X82925000Y-82350000D03*
%TO.P,U7,6,PGOOD*%
%TO.N,unconnected-(U7-PGOOD-Pad6)*%
X83575000Y-82350000D03*
D24*
%TO.P,U7,7,VOUT*%
%TO.N,/4V*%
X84300000Y-82000000D03*
%TO.P,U7,8,VOUT*%
X84300000Y-78000000D03*
D25*
%TO.P,U7,9,FB*%
%TO.N,unconnected-(U7-FB-Pad9)*%
X83575000Y-77650000D03*
%TO.P,U7,10,PGND*%
%TO.N,GND*%
X82925000Y-77650000D03*
%TO.P,U7,11,PGND*%
X82275000Y-77650000D03*
%TO.P,U7,12,AGND*%
%TO.N,unconnected-(U7-AGND-Pad12)*%
X81625000Y-77650000D03*
%TO.P,U7,13,V5V*%
%TO.N,unconnected-(U7-V5V-Pad13)*%
X80975000Y-77650000D03*
D24*
%TO.P,U7,14,VIN*%
%TO.N,Net-(BT1-+)*%
X80000000Y-78000000D03*
D26*
%TO.P,U7,15,PGND*%
%TO.N,GND*%
X81195000Y-80950000D03*
X82145000Y-80950000D03*
X83095000Y-80950000D03*
X80245000Y-80000000D03*
X81195000Y-80000000D03*
X82145000Y-80000000D03*
D27*
X82145000Y-80000000D03*
D26*
X83095000Y-80000000D03*
X84045000Y-80000000D03*
X81195000Y-79050000D03*
X82145000Y-79050000D03*
X83095000Y-79050000D03*
%TD*%
D22*
%TO.P,R4,1*%
%TO.N,Net-(U1-IO27)*%
X129000000Y-103650000D03*
%TO.P,R4,2*%
%TO.N,Net-(D1-A)*%
X129000000Y-102000000D03*
%TD*%
D28*
%TO.P,C2,1*%
%TO.N,GND*%
X86000000Y-85450000D03*
%TO.P,C2,2*%
%TO.N,Net-(C1-Pad1)*%
X86000000Y-87000000D03*
%TD*%
D29*
%TO.P,C7,1*%
%TO.N,/3.3V*%
X162550000Y-96000000D03*
%TO.P,C7,2*%
%TO.N,GND*%
X161000000Y-96000000D03*
%TD*%
D12*
%TO.P,SW3,1,1*%
%TO.N,Net-(U1-IO26)*%
X99500000Y-124050000D03*
X106000000Y-124050000D03*
%TO.P,SW3,2,2*%
%TO.N,GND*%
X99500000Y-128550000D03*
X106000000Y-128550000D03*
%TD*%
D23*
%TO.P,C8,1*%
%TO.N,Net-(BT1-+)*%
X89000000Y-67000000D03*
%TO.P,C8,2*%
%TO.N,/4V*%
X90550000Y-67000000D03*
%TD*%
D30*
%TO.P,R2,1*%
%TO.N,Net-(U2-UART1_RXD)*%
X143000000Y-112000000D03*
%TO.P,R2,2*%
%TO.N,GND*%
X144650000Y-112000000D03*
%TD*%
D23*
%TO.P,C4,1*%
%TO.N,/4V*%
X148530000Y-112000000D03*
%TO.P,C4,2*%
%TO.N,GND*%
X150080000Y-112000000D03*
%TD*%
D10*
%TO.P,D3,1,K*%
%TO.N,GND*%
X150540000Y-67060000D03*
D11*
%TO.P,D3,2,A*%
%TO.N,Net-(D3-A)*%
X148000000Y-67060000D03*
%TD*%
D31*
%TO.P,J1,1,VBUS*%
%TO.N,Net-(J1-VBUS)*%
X114350000Y-127000000D03*
%TO.P,J1,2,D-*%
%TO.N,unconnected-(J1-D--Pad2)*%
X115000000Y-127000000D03*
%TO.P,J1,3,D+*%
%TO.N,unconnected-(J1-D+-Pad3)*%
X115650000Y-127000000D03*
%TO.P,J1,4,ID*%
%TO.N,unconnected-(J1-ID-Pad4)*%
X116300000Y-127000000D03*
%TO.P,J1,5,GND*%
%TO.N,GND*%
X116950000Y-127000000D03*
D32*
%TO.P,J1,6,Shield*%
%TO.N,unconnected-(J1-Shield-Pad6)_1*%
X112850000Y-126750000D03*
D33*
%TO.N,unconnected-(J1-Shield-Pad6)*%
X115650000Y-128900000D03*
D32*
%TO.N,unconnected-(J1-Shield-Pad6)_2*%
X118450000Y-126750000D03*
%TD*%
D30*
%TO.P,R1,1*%
%TO.N,Net-(U1-IO17)*%
X128000000Y-106000000D03*
%TO.P,R1,2*%
%TO.N,Net-(U2-UART1_RXD)*%
X129650000Y-106000000D03*
%TD*%
D10*
%TO.P,D1,1,K*%
%TO.N,GND*%
X150540000Y-82000000D03*
D11*
%TO.P,D1,2,A*%
%TO.N,Net-(D1-A)*%
X148000000Y-82000000D03*
%TD*%
D34*
%TO.P,C3,1*%
%TO.N,/4V*%
X109000000Y-111550000D03*
%TO.P,C3,2*%
%TO.N,GND*%
X109000000Y-110000000D03*
%TD*%
D23*
%TO.P,C1,1*%
%TO.N,Net-(C1-Pad1)*%
X94000000Y-89000000D03*
%TO.P,C1,2*%
%TO.N,Net-(U1-VDD)*%
X95550000Y-89000000D03*
%TD*%
D35*
%TO.P,U4,1,TEMP*%
%TO.N,unconnected-(U4-TEMP-Pad1)*%
X81000000Y-72000000D03*
%TO.P,U4,2,PROG*%
%TO.N,unconnected-(U4-PROG-Pad2)*%
X82270000Y-72000000D03*
%TO.P,U4,3,GND*%
%TO.N,GND*%
X83540000Y-72000000D03*
%TO.P,U4,4,V_{CC}*%
%TO.N,Net-(J1-VBUS)*%
X84810000Y-72000000D03*
%TO.P,U4,5,BAT*%
%TO.N,Net-(BT1-+)*%
X84810000Y-67050000D03*
%TO.P,U4,6,~{STDBY}*%
%TO.N,unconnected-(U4-~{STDBY}-Pad6)*%
X83540000Y-67050000D03*
%TO.P,U4,7,~{CHRG}*%
%TO.N,unconnected-(U4-~{CHRG}-Pad7)*%
X82270000Y-67050000D03*
%TO.P,U4,8,CE*%
%TO.N,unconnected-(U4-CE-Pad8)*%
X81000000Y-67050000D03*
D36*
%TO.P,U4,9,EPAD*%
%TO.N,unconnected-(U4-EPAD-Pad9)_2*%
X81705000Y-70225000D03*
%TO.N,unconnected-(U4-EPAD-Pad9)_3*%
X82905000Y-70225000D03*
%TO.N,unconnected-(U4-EPAD-Pad9)*%
X84105000Y-70225000D03*
D37*
%TO.N,unconnected-(U4-EPAD-Pad9)_7*%
X82905000Y-69525000D03*
D36*
%TO.N,unconnected-(U4-EPAD-Pad9)_6*%
X81705000Y-68825000D03*
%TO.N,unconnected-(U4-EPAD-Pad9)_4*%
X82905000Y-68825000D03*
%TO.N,unconnected-(U4-EPAD-Pad9)_1*%
X84105000Y-68825000D03*
%TD*%
D28*
%TO.P,C5,1*%
%TO.N,/4V*%
X100000000Y-110000000D03*
%TO.P,C5,2*%
%TO.N,GND*%
X100000000Y-111550000D03*
%TD*%
D34*
%TO.P,C9,1*%
%TO.N,/4V*%
X129000000Y-96550000D03*
%TO.P,C9,2*%
%TO.N,GND*%
X129000000Y-95000000D03*
%TD*%
D38*
%TO.P,J2,1,In*%
%TO.N,Net-(J2-In)*%
X160540000Y-86540000D03*
D39*
%TO.P,J2,2,Ext*%
%TO.N,GND*%
X163080000Y-84000000D03*
X158000000Y-84000000D03*
X163080000Y-89080000D03*
X158000000Y-89080000D03*
%TD*%
D40*
%TO.P,U5,1,GND*%
%TO.N,GND*%
X129580000Y-116275000D03*
%TO.P,U5,2,VO*%
%TO.N,/3.3V*%
X129580000Y-113975000D03*
D41*
X123280000Y-113975000D03*
D40*
%TO.P,U5,3,VI*%
%TO.N,/4V*%
X129580000Y-111675000D03*
%TD*%
D22*
%TO.P,R5,1*%
%TO.N,Net-(U2-NETLIGHT)*%
X156000000Y-67000000D03*
%TO.P,R5,2*%
%TO.N,Net-(D2-A)*%
X156000000Y-65350000D03*
%TD*%
D42*
%TO.N,GND*%
X110000000Y-95000000D03*
X81000000Y-85000000D03*
X112500000Y-100000000D03*
X140000000Y-112176000D03*
X142500000Y-122500000D03*
%TO.N,/3.3V*%
X122500000Y-107500000D03*
X120000000Y-110000000D03*
%TO.N,/4V*%
X125049000Y-107500000D03*
X130000000Y-100000000D03*
X132500000Y-95000000D03*
X112500000Y-112500000D03*
X127500000Y-97500000D03*
%TO.N,Net-(D1-A)*%
X142500000Y-82500000D03*
X126750000Y-89148529D03*
%TO.N,Net-(J1-VBUS)*%
X114000000Y-122000000D03*
X86000000Y-73000000D03*
%TO.N,Net-(J2-In)*%
X145000000Y-90000000D03*
%TO.N,Net-(U2-UART1_RXD)*%
X142500000Y-112176000D03*
X137500000Y-112176000D03*
X131900000Y-107500000D03*
X135000000Y-110000000D03*
%TO.N,Net-(U1-IO27)*%
X120000000Y-100000000D03*
X130000000Y-105000000D03*
%TO.N,Net-(U2-NETLIGHT)*%
X162500000Y-102500000D03*
X137500000Y-105000000D03*
%TO.N,Net-(U2-~{PWRKEY})*%
X142500000Y-95000000D03*
X145000000Y-80000000D03*
%TO.N,Net-(U1-IO25)*%
X105000000Y-100000000D03*
%TO.N,Net-(U1-IO26)*%
X105000000Y-102500000D03*
%TO.N,Net-(U1-IO13)*%
X150000000Y-95000000D03*
X127500000Y-120000000D03*
%TD*%
D43*
%TO.N,Net-(BT1-+)*%
X84810000Y-67050000D02*
X88950000Y-67050000D01*
X80659032Y-65774000D02*
X80000000Y-66433032D01*
X80000000Y-78000000D02*
X79539000Y-78461000D01*
X88950000Y-67050000D02*
X89000000Y-67000000D01*
X87774000Y-65774000D02*
X80659032Y-65774000D01*
X79539000Y-81539000D02*
X80000000Y-82000000D01*
X84810000Y-56375000D02*
X84810000Y-67050000D01*
X89000000Y-67000000D02*
X87774000Y-65774000D01*
X80000000Y-66433032D02*
X80000000Y-78000000D01*
X80300000Y-51865000D02*
X84810000Y-56375000D01*
X79539000Y-78461000D02*
X79539000Y-81539000D01*
%TO.N,GND*%
X109000000Y-110000000D02*
X109000000Y-107800000D01*
X146600000Y-96600000D02*
X143550000Y-93550000D01*
X151800000Y-96600000D02*
X146600000Y-96600000D01*
X143550000Y-93550000D02*
X142849000Y-94251000D01*
X154849942Y-96000000D02*
X161000000Y-96000000D01*
X143550000Y-93150000D02*
X143550000Y-93550000D01*
X158960000Y-51865000D02*
X158960000Y-58640000D01*
X144650000Y-112000000D02*
X143874000Y-111224000D01*
X83075000Y-85450000D02*
X81625000Y-84000000D01*
X80000000Y-111000000D02*
X80000000Y-99000000D01*
X81000000Y-85000000D02*
X81625000Y-84375000D01*
X152049942Y-98800000D02*
X154849942Y-96000000D01*
X129000000Y-90550000D02*
X126450000Y-88000000D01*
X143874000Y-111224000D02*
X140952000Y-111224000D01*
X152901000Y-98199000D02*
X152300000Y-98800000D01*
X140951000Y-94251000D02*
X140250000Y-93550000D01*
X132800000Y-98800000D02*
X129000000Y-95000000D01*
X142849000Y-94251000D02*
X140951000Y-94251000D01*
X150080000Y-112000000D02*
X150080000Y-114920000D01*
X136950000Y-96550000D02*
X136950000Y-93150000D01*
X129000000Y-95000000D02*
X129000000Y-90550000D01*
X85525000Y-85450000D02*
X86000000Y-85450000D01*
X109000000Y-110000000D02*
X108000000Y-110000000D01*
X134700000Y-98800000D02*
X136950000Y-96550000D01*
X139150000Y-93399942D02*
X138298942Y-94251000D01*
X151800000Y-105400000D02*
X151800000Y-110280000D01*
X106450000Y-111550000D02*
X100000000Y-111550000D01*
X108000000Y-110000000D02*
X106450000Y-111550000D01*
X150080000Y-114920000D02*
X142500000Y-122500000D01*
X81513064Y-100201000D02*
X80301000Y-100201000D01*
X82275000Y-77650000D02*
X82925000Y-77650000D01*
X151800000Y-96600000D02*
X152049942Y-96600000D01*
X116950000Y-127000000D02*
X118450000Y-128500000D01*
X148530000Y-127000000D02*
X150080000Y-127000000D01*
X114545000Y-97955000D02*
X112500000Y-100000000D01*
X82200000Y-99000000D02*
X82200000Y-88775000D01*
X137651000Y-94251000D02*
X136950000Y-93550000D01*
X152901000Y-97451058D02*
X152901000Y-98199000D01*
X151800000Y-98800000D02*
X152049942Y-98800000D01*
X80301000Y-100201000D02*
X80000000Y-99900000D01*
X161000000Y-96000000D02*
X161000000Y-91160000D01*
X138298942Y-94251000D02*
X137651000Y-94251000D01*
X140952000Y-111224000D02*
X140000000Y-112176000D01*
X82925000Y-72615000D02*
X83540000Y-72000000D01*
X86000000Y-85450000D02*
X83075000Y-85450000D01*
X134200000Y-99900000D02*
X134200000Y-98800000D01*
X151800000Y-110280000D02*
X150080000Y-112000000D01*
X152300000Y-98800000D02*
X151800000Y-98800000D01*
X161000000Y-91160000D02*
X163080000Y-89080000D01*
X82200000Y-88775000D02*
X85525000Y-85450000D01*
X81625000Y-84000000D02*
X81625000Y-82350000D01*
X158960000Y-79880000D02*
X163080000Y-84000000D01*
X118450000Y-128500000D02*
X127000000Y-128500000D01*
X100000000Y-111550000D02*
X94550000Y-111550000D01*
X82200000Y-99514064D02*
X81513064Y-100201000D01*
X152049942Y-96600000D02*
X152901000Y-97451058D01*
X111040000Y-105760000D02*
X111040000Y-103960000D01*
X82145000Y-77780000D02*
X82275000Y-77650000D01*
X129580000Y-125920000D02*
X127000000Y-128500000D01*
X140250000Y-93150000D02*
X139150000Y-93150000D01*
X134200000Y-98800000D02*
X134700000Y-98800000D01*
X126450000Y-88000000D02*
X125500000Y-88000000D01*
X94550000Y-111550000D02*
X94000000Y-111000000D01*
X110000000Y-95000000D02*
X110000000Y-89468000D01*
X158960000Y-51865000D02*
X158960000Y-79880000D01*
X150080000Y-127000000D02*
X150080000Y-112000000D01*
X82925000Y-77650000D02*
X82925000Y-72615000D01*
X136950000Y-93550000D02*
X136950000Y-93150000D01*
X144650000Y-112000000D02*
X144650000Y-108850000D01*
X134200000Y-98800000D02*
X132800000Y-98800000D01*
X158960000Y-58640000D02*
X150540000Y-67060000D01*
X114545000Y-100455000D02*
X114545000Y-96865000D01*
X129580000Y-116275000D02*
X129580000Y-125920000D01*
X114545000Y-93815000D02*
X114545000Y-97955000D01*
X139150000Y-93150000D02*
X139150000Y-93399942D01*
X82200000Y-99000000D02*
X82200000Y-99514064D01*
X81625000Y-84375000D02*
X81625000Y-84000000D01*
X140250000Y-93550000D02*
X140250000Y-93150000D01*
X82145000Y-79050000D02*
X82145000Y-77780000D01*
X110000000Y-89468000D02*
X108182000Y-87650000D01*
X80000000Y-99900000D02*
X80000000Y-99000000D01*
X111040000Y-103960000D02*
X114545000Y-100455000D01*
X109000000Y-107800000D02*
X111040000Y-105760000D01*
%TO.N,/3.3V*%
X94799000Y-88525890D02*
X94799000Y-89474110D01*
X113348100Y-87249000D02*
X96075890Y-87249000D01*
X122500000Y-96400900D02*
X113348100Y-87249000D01*
X96075890Y-87249000D02*
X94799000Y-88525890D01*
X120845000Y-113975000D02*
X113580000Y-106710000D01*
X94799000Y-89474110D02*
X97974890Y-92650000D01*
X122500000Y-107500000D02*
X123844000Y-108844000D01*
X118862843Y-101987100D02*
X122500000Y-98349943D01*
X124449000Y-87249000D02*
X144749000Y-87249000D01*
X113580000Y-106710000D02*
X113580000Y-105760000D01*
X123844000Y-108844000D02*
X124449000Y-108844000D01*
X156993331Y-93150000D02*
X162489331Y-87654000D01*
X123280000Y-113975000D02*
X120000000Y-110695000D01*
X149050000Y-93150000D02*
X156993331Y-93150000D01*
X163670669Y-87654000D02*
X164506000Y-88489331D01*
X120000000Y-110695000D02*
X120000000Y-110000000D01*
X113580000Y-104810000D02*
X116402900Y-101987100D01*
X149050000Y-91550000D02*
X149050000Y-93150000D01*
X164506000Y-88489331D02*
X164506000Y-94044000D01*
X97974890Y-92650000D02*
X103000000Y-92650000D01*
X144749000Y-87249000D02*
X149050000Y-91550000D01*
X113580000Y-105760000D02*
X113580000Y-104810000D01*
X123280000Y-113975000D02*
X120845000Y-113975000D01*
X164506000Y-94044000D02*
X162550000Y-96000000D01*
X122500000Y-98349943D02*
X122500000Y-96400900D01*
X129580000Y-113975000D02*
X124449000Y-108844000D01*
X162489331Y-87654000D02*
X163670669Y-87654000D01*
X124449000Y-108844000D02*
X124449000Y-87249000D01*
X116402900Y-101987100D02*
X118862843Y-101987100D01*
%TO.N,Net-(C1-Pad1)*%
X86000000Y-87000000D02*
X92000000Y-87000000D01*
X92000000Y-87000000D02*
X94000000Y-89000000D01*
%TO.N,/4V*%
X132600000Y-95000000D02*
X134200000Y-96600000D01*
X108249000Y-112301000D02*
X109000000Y-111550000D01*
X111550000Y-111550000D02*
X112500000Y-112500000D01*
X100000000Y-110000000D02*
X99799000Y-109799000D01*
X134200000Y-96600000D02*
X134200000Y-97700000D01*
X86986936Y-112201000D02*
X92799000Y-112201000D01*
X84300000Y-82000000D02*
X86776000Y-84476000D01*
X93686936Y-112301000D02*
X108249000Y-112301000D01*
X86474110Y-86201000D02*
X85350000Y-86201000D01*
X85000000Y-86551000D02*
X85000000Y-96387936D01*
X84300000Y-78000000D02*
X84751000Y-78451000D01*
X84751000Y-78451000D02*
X84751000Y-81549000D01*
X86776000Y-85899110D02*
X86474110Y-86201000D01*
X99799000Y-109799000D02*
X93586936Y-109799000D01*
X90550000Y-67000000D02*
X90550000Y-71750000D01*
X93299000Y-110086936D02*
X93299000Y-111913064D01*
X92799000Y-112201000D02*
X92900000Y-112100000D01*
X132500000Y-95000000D02*
X132600000Y-95000000D01*
X86699000Y-111913064D02*
X86986936Y-112201000D01*
X92900000Y-111000000D02*
X92900000Y-110485936D01*
X92900000Y-112100000D02*
X92900000Y-111000000D01*
X84751000Y-81549000D02*
X84300000Y-82000000D01*
X129580000Y-111675000D02*
X125405000Y-107500000D01*
X90550000Y-71750000D02*
X84300000Y-78000000D01*
X93586936Y-109799000D02*
X93299000Y-110086936D01*
X129580000Y-111675000D02*
X132500000Y-108755000D01*
X92900000Y-110485936D02*
X93586936Y-109799000D01*
X132500000Y-102500000D02*
X130000000Y-100000000D01*
X85000000Y-96387936D02*
X86699000Y-98086936D01*
X147754000Y-112776000D02*
X148530000Y-112000000D01*
X127500000Y-97500000D02*
X128050000Y-97500000D01*
X93299000Y-111913064D02*
X93686936Y-112301000D01*
X125405000Y-107500000D02*
X125049000Y-107500000D01*
X129580000Y-111675000D02*
X130681000Y-112776000D01*
X86699000Y-98086936D02*
X86699000Y-111913064D01*
X130681000Y-112776000D02*
X147754000Y-112776000D01*
X85350000Y-86201000D02*
X85000000Y-86551000D01*
X128050000Y-97500000D02*
X129000000Y-96550000D01*
X86776000Y-84476000D02*
X86776000Y-85899110D01*
X109000000Y-111550000D02*
X111550000Y-111550000D01*
X132500000Y-108755000D02*
X132500000Y-102500000D01*
%TO.N,Net-(D1-A)*%
X126750000Y-99750000D02*
X126750000Y-89148529D01*
X129000000Y-102000000D02*
X126750000Y-99750000D01*
X142500000Y-82500000D02*
X145000000Y-82500000D01*
X145500000Y-82000000D02*
X148000000Y-82000000D01*
X145000000Y-82500000D02*
X145500000Y-82000000D01*
%TO.N,Net-(D2-A)*%
X148000000Y-74530000D02*
X148000000Y-73810936D01*
X156000000Y-65810936D02*
X156000000Y-65350000D01*
X148000000Y-73810936D02*
X156000000Y-65810936D01*
%TO.N,Net-(D3-A)*%
X144000000Y-75350000D02*
X144000000Y-71060000D01*
X144000000Y-71060000D02*
X148000000Y-67060000D01*
%TO.N,Net-(J1-VBUS)*%
X114000000Y-122000000D02*
X114350000Y-122350000D01*
X85000000Y-72000000D02*
X86000000Y-73000000D01*
X84810000Y-72000000D02*
X85000000Y-72000000D01*
X114350000Y-122350000D02*
X114350000Y-127000000D01*
%TO.N,Net-(J2-In)*%
X138050000Y-93150000D02*
X138050000Y-91950000D01*
X138050000Y-91950000D02*
X140000000Y-90000000D01*
X140000000Y-90000000D02*
X145000000Y-90000000D01*
%TO.N,Net-(U1-IO17)*%
X126450000Y-100700000D02*
X128000000Y-102250000D01*
X128000000Y-102250000D02*
X128000000Y-106000000D01*
X125500000Y-100700000D02*
X126450000Y-100700000D01*
%TO.N,Net-(U2-UART1_RXD)*%
X138050000Y-109250000D02*
X138050000Y-108850000D01*
X142500000Y-112176000D02*
X142824000Y-112176000D01*
X138050000Y-108850000D02*
X138050000Y-111626000D01*
X135000000Y-110000000D02*
X137300000Y-110000000D01*
X130400000Y-106000000D02*
X131900000Y-107500000D01*
X129650000Y-106000000D02*
X130400000Y-106000000D01*
X142824000Y-112176000D02*
X143000000Y-112000000D01*
X138050000Y-111626000D02*
X137500000Y-112176000D01*
X137300000Y-110000000D02*
X138050000Y-109250000D01*
%TO.N,Net-(U1-EN)*%
X103000000Y-91000000D02*
X107540000Y-91000000D01*
X107540000Y-91000000D02*
X108000000Y-90540000D01*
%TO.N,Net-(U1-IO27)*%
X109440000Y-101970000D02*
X113669000Y-97741000D01*
X108000000Y-101970000D02*
X109440000Y-101970000D01*
X118471000Y-92939000D02*
X120000000Y-94468000D01*
X130000000Y-105000000D02*
X130000000Y-104650000D01*
X113669000Y-92939000D02*
X118471000Y-92939000D01*
X120000000Y-94468000D02*
X120000000Y-100000000D01*
X113669000Y-97741000D02*
X113669000Y-92939000D01*
X130000000Y-104650000D02*
X129000000Y-103650000D01*
%TO.N,Net-(U2-NETLIGHT)*%
X156000000Y-67000000D02*
X156000000Y-79416231D01*
X156000000Y-79416231D02*
X164907000Y-88323231D01*
X136800000Y-104300000D02*
X134200000Y-104300000D01*
X137500000Y-105000000D02*
X136800000Y-104300000D01*
X164907000Y-88323231D02*
X164907000Y-100093000D01*
X164907000Y-100093000D02*
X162500000Y-102500000D01*
%TO.N,Net-(U2-~{PWRKEY})*%
X144000000Y-79000000D02*
X144000000Y-77000000D01*
X137900000Y-102100000D02*
X142500000Y-97500000D01*
X145000000Y-80000000D02*
X144000000Y-79000000D01*
X134200000Y-102100000D02*
X137900000Y-102100000D01*
X142500000Y-97500000D02*
X142500000Y-95000000D01*
%TO.N,Net-(U1-IO25)*%
X105000000Y-100000000D02*
X105570000Y-99430000D01*
X105570000Y-99430000D02*
X108000000Y-99430000D01*
%TO.N,Net-(U1-IO26)*%
X106000000Y-124050000D02*
X99500000Y-124050000D01*
X105000000Y-102500000D02*
X106800000Y-100700000D01*
X106800000Y-100700000D02*
X108000000Y-100700000D01*
%TO.N,Net-(U1-IO15)*%
X149298942Y-109951000D02*
X149651000Y-109598942D01*
X149298942Y-107749000D02*
X137801058Y-107749000D01*
X149651000Y-109598942D02*
X149651000Y-108101058D01*
X149298942Y-112456168D02*
X149298942Y-109951000D01*
X146729110Y-115026000D02*
X149298942Y-112456168D01*
X149651000Y-108101058D02*
X149298942Y-107749000D01*
X121200000Y-107551008D02*
X128674992Y-115026000D01*
X121200000Y-105760000D02*
X121200000Y-107551008D01*
X128674992Y-115026000D02*
X146729110Y-115026000D01*
X137801058Y-107749000D02*
X136950000Y-108600058D01*
X136950000Y-108600058D02*
X136950000Y-108850000D01*
%TO.N,Net-(U1-SENSOR_VN)*%
X90700000Y-109848000D02*
X107468000Y-93080000D01*
X107468000Y-93080000D02*
X108000000Y-93080000D01*
X90700000Y-111000000D02*
X90700000Y-109848000D01*
%TO.N,Net-(U1-IO13)*%
X147950000Y-93550000D02*
X147950000Y-93150000D01*
X149400000Y-95000000D02*
X147950000Y-93550000D01*
X150000000Y-95000000D02*
X149400000Y-95000000D01*
X122500000Y-120000000D02*
X127500000Y-120000000D01*
X112310000Y-109810000D02*
X122500000Y-120000000D01*
X112310000Y-105760000D02*
X112310000Y-109810000D01*
%TO.N,Net-(U1-SENSOR_VP)*%
X89600000Y-107900000D02*
X89600000Y-111000000D01*
X105690000Y-91810000D02*
X89600000Y-107900000D01*
X108000000Y-91810000D02*
X105690000Y-91810000D01*
%TO.N,Net-(U1-VDD)*%
X107730000Y-89000000D02*
X108000000Y-89270000D01*
X95550000Y-89000000D02*
X107730000Y-89000000D01*
%TD*%
M02*
