%TF.GenerationSoftware,KiCad,Pcbnew,9.0.0*%
%TF.CreationDate,2025-07-02T16:13:02+05:30*%
%TF.ProjectId,ESP32 GPS + GSM Tracker,45535033-3220-4475-9053-202b2047534d,rev?*%
%TF.SameCoordinates,Original*%
%TF.FileFunction,Soldermask,Top*%
%TF.FilePolarity,Negative*%
%FSLAX46Y46*%
G04 Gerber Fmt 4.6, Leading zero omitted, Abs format (unit mm)*
G04 Created by KiCad (PCBNEW 9.0.0) date 2025-07-02 16:13:02*
%MOMM*%
%LPD*%
G01*
G04 APERTURE LIST*
G04 Aperture macros list*
%AMRoundRect*
0 Rectangle with rounded corners*
0 $1 Rounding radius*
0 $2 $3 $4 $5 $6 $7 $8 $9 X,Y pos of 4 corners*
0 Add a 4 corners polygon primitive as box body*
4,1,4,$2,$3,$4,$5,$6,$7,$8,$9,$2,$3,0*
0 Add four circle primitives for the rounded corners*
1,1,$1+$1,$2,$3*
1,1,$1+$1,$4,$5*
1,1,$1+$1,$6,$7*
1,1,$1+$1,$8,$9*
0 Add four rect primitives between the rounded corners*
20,1,$1+$1,$2,$3,$4,$5,0*
20,1,$1+$1,$4,$5,$6,$7,0*
20,1,$1+$1,$6,$7,$8,$9,0*
20,1,$1+$1,$8,$9,$2,$3,0*%
%AMFreePoly0*
4,1,13,0.750000,1.250000,1.250000,1.250000,1.250000,-1.250000,0.750000,-1.250000,0.750000,-2.300000,-0.750000,-2.300000,-0.750000,-1.250000,-1.250000,-1.250000,-1.250000,1.250000,-0.750000,1.250000,-0.750000,2.300000,0.750000,2.300000,0.750000,1.250000,0.750000,1.250000,$1*%
G04 Aperture macros list end*
%ADD10R,1.800000X1.800000*%
%ADD11C,1.800000*%
%ADD12C,2.000000*%
%ADD13C,2.390000*%
%ADD14C,3.450000*%
%ADD15R,7.340000X6.350000*%
%ADD16R,1.500000X0.900000*%
%ADD17R,0.900000X1.500000*%
%ADD18C,0.600000*%
%ADD19R,4.200000X4.200000*%
%ADD20O,0.600000X1.600000*%
%ADD21O,1.600000X0.600000*%
%ADD22RoundRect,0.200000X-0.200000X0.700000X-0.200000X-0.700000X0.200000X-0.700000X0.200000X0.700000X0*%
%ADD23RoundRect,0.200000X0.275000X-0.200000X0.275000X0.200000X-0.275000X0.200000X-0.275000X-0.200000X0*%
%ADD24RoundRect,0.225000X-0.225000X-0.250000X0.225000X-0.250000X0.225000X0.250000X-0.225000X0.250000X0*%
%ADD25RoundRect,0.050000X0.200000X-0.650000X0.200000X0.650000X-0.200000X0.650000X-0.200000X-0.650000X0*%
%ADD26RoundRect,0.050050X0.124950X-0.299950X0.124950X0.299950X-0.124950X0.299950X-0.124950X-0.299950X0*%
%ADD27C,0.500000*%
%ADD28FreePoly0,90.000000*%
%ADD29RoundRect,0.225000X-0.250000X0.225000X-0.250000X-0.225000X0.250000X-0.225000X0.250000X0.225000X0*%
%ADD30RoundRect,0.225000X0.225000X0.250000X-0.225000X0.250000X-0.225000X-0.250000X0.225000X-0.250000X0*%
%ADD31RoundRect,0.200000X-0.200000X-0.275000X0.200000X-0.275000X0.200000X0.275000X-0.200000X0.275000X0*%
%ADD32R,0.450000X1.500000*%
%ADD33O,1.800000X1.100000*%
%ADD34O,2.200000X1.100000*%
%ADD35RoundRect,0.225000X0.250000X-0.225000X0.250000X0.225000X-0.250000X0.225000X-0.250000X-0.225000X0*%
%ADD36RoundRect,0.150000X0.150000X-0.825000X0.150000X0.825000X-0.150000X0.825000X-0.150000X-0.825000X0*%
%ADD37R,3.300000X2.410000*%
%ADD38C,2.050000*%
%ADD39C,2.250000*%
%ADD40RoundRect,0.375000X0.625000X0.375000X-0.625000X0.375000X-0.625000X-0.375000X0.625000X-0.375000X0*%
%ADD41RoundRect,0.500000X0.500000X1.400000X-0.500000X1.400000X-0.500000X-1.400000X0.500000X-1.400000X0*%
G04 APERTURE END LIST*
D10*
%TO.C,D2*%
X150540000Y-74530000D03*
D11*
X148000000Y-74530000D03*
%TD*%
D12*
%TO.C,SW2*%
X127000000Y-124000000D03*
X133500000Y-124000000D03*
X127000000Y-128500000D03*
X133500000Y-128500000D03*
%TD*%
D13*
%TO.C,BT1*%
X83700000Y-43865000D03*
D14*
X92030000Y-59865000D03*
X147230000Y-43865000D03*
D15*
X80300000Y-51865000D03*
X158960000Y-51865000D03*
%TD*%
D16*
%TO.C,U1*%
X108000000Y-88000000D03*
X108000000Y-89270000D03*
X108000000Y-90540000D03*
X108000000Y-91810000D03*
X108000000Y-93080000D03*
X108000000Y-94350000D03*
X108000000Y-95620000D03*
X108000000Y-96890000D03*
X108000000Y-98160000D03*
X108000000Y-99430000D03*
X108000000Y-100700000D03*
X108000000Y-101970000D03*
X108000000Y-103240000D03*
X108000000Y-104510000D03*
D17*
X111040000Y-105760000D03*
X112310000Y-105760000D03*
X113580000Y-105760000D03*
X114850000Y-105760000D03*
X116120000Y-105760000D03*
X117390000Y-105760000D03*
X118660000Y-105760000D03*
X119930000Y-105760000D03*
X121200000Y-105760000D03*
X122470000Y-105760000D03*
D16*
X125500000Y-104510000D03*
X125500000Y-103240000D03*
X125500000Y-101970000D03*
X125500000Y-100700000D03*
X125500000Y-99430000D03*
X125500000Y-98160000D03*
X125500000Y-96890000D03*
X125500000Y-95620000D03*
X125500000Y-94350000D03*
X125500000Y-93080000D03*
X125500000Y-91810000D03*
X125500000Y-90540000D03*
X125500000Y-89270000D03*
X125500000Y-88000000D03*
D18*
X114545000Y-94577500D03*
X114545000Y-96102500D03*
X115307500Y-93815000D03*
X115307500Y-95340000D03*
X115307500Y-96865000D03*
X116070000Y-94577500D03*
D19*
X116070000Y-95340000D03*
D18*
X116070000Y-96102500D03*
X116832500Y-93815000D03*
X116832500Y-95340000D03*
X116832500Y-96865000D03*
X117595000Y-94577500D03*
X117595000Y-96102500D03*
%TD*%
D20*
%TO.C,U2*%
X136950000Y-108850000D03*
X138050000Y-108850000D03*
X139150000Y-108850000D03*
X140250000Y-108850000D03*
X141350000Y-108850000D03*
X142450000Y-108850000D03*
X143550000Y-108850000D03*
X144650000Y-108850000D03*
X145750000Y-108850000D03*
X146850000Y-108850000D03*
X147950000Y-108850000D03*
X149050000Y-108850000D03*
D21*
X151800000Y-105400000D03*
X151800000Y-104300000D03*
X151800000Y-103200000D03*
X151800000Y-102100000D03*
X151800000Y-101000000D03*
X151800000Y-99900000D03*
X151800000Y-98800000D03*
X151800000Y-97700000D03*
X151800000Y-96600000D03*
D20*
X149050000Y-93150000D03*
X147950000Y-93150000D03*
X146850000Y-93150000D03*
X145750000Y-93150000D03*
X144650000Y-93150000D03*
X143550000Y-93150000D03*
X142450000Y-93150000D03*
X141350000Y-93150000D03*
X140250000Y-93150000D03*
X139150000Y-93150000D03*
X138050000Y-93150000D03*
X136950000Y-93150000D03*
D21*
X134200000Y-96600000D03*
X134200000Y-97700000D03*
X134200000Y-98800000D03*
X134200000Y-99900000D03*
X134200000Y-101000000D03*
X134200000Y-102100000D03*
X134200000Y-103200000D03*
X134200000Y-104300000D03*
X134200000Y-105400000D03*
%TD*%
D22*
%TO.C,U3*%
X94000000Y-99000000D03*
X92900000Y-99000000D03*
X91800000Y-99000000D03*
X90700000Y-99000000D03*
X89600000Y-99000000D03*
X88500000Y-99000000D03*
X87400000Y-99000000D03*
X84400000Y-99000000D03*
X83300000Y-99000000D03*
X82200000Y-99000000D03*
X81100000Y-99000000D03*
X80000000Y-99000000D03*
X80000000Y-111000000D03*
X81100000Y-111000000D03*
X82200000Y-111000000D03*
X83300000Y-111000000D03*
X84400000Y-111000000D03*
X87400000Y-111000000D03*
X88500000Y-111000000D03*
X89600000Y-111000000D03*
X90700000Y-111000000D03*
X91800000Y-111000000D03*
X92900000Y-111000000D03*
X94000000Y-111000000D03*
%TD*%
D23*
%TO.C,R6*%
X144000000Y-77000000D03*
X144000000Y-75350000D03*
%TD*%
%TO.C,R3*%
X103000000Y-92650000D03*
X103000000Y-91000000D03*
%TD*%
D24*
%TO.C,C6*%
X148530000Y-127000000D03*
X150080000Y-127000000D03*
%TD*%
D25*
%TO.C,U7*%
X80000000Y-82000000D03*
D26*
X80975000Y-82350000D03*
X81625000Y-82350000D03*
X82275000Y-82350000D03*
X82925000Y-82350000D03*
X83575000Y-82350000D03*
D25*
X84300000Y-82000000D03*
X84300000Y-78000000D03*
D26*
X83575000Y-77650000D03*
X82925000Y-77650000D03*
X82275000Y-77650000D03*
X81625000Y-77650000D03*
X80975000Y-77650000D03*
D25*
X80000000Y-78000000D03*
D27*
X81195000Y-80950000D03*
X82145000Y-80950000D03*
X83095000Y-80950000D03*
X80245000Y-80000000D03*
X81195000Y-80000000D03*
X82145000Y-80000000D03*
D28*
X82145000Y-80000000D03*
D27*
X83095000Y-80000000D03*
X84045000Y-80000000D03*
X81195000Y-79050000D03*
X82145000Y-79050000D03*
X83095000Y-79050000D03*
%TD*%
D23*
%TO.C,R4*%
X129000000Y-103650000D03*
X129000000Y-102000000D03*
%TD*%
D29*
%TO.C,C2*%
X86000000Y-85450000D03*
X86000000Y-87000000D03*
%TD*%
D30*
%TO.C,C7*%
X162550000Y-96000000D03*
X161000000Y-96000000D03*
%TD*%
D12*
%TO.C,SW3*%
X99500000Y-124050000D03*
X106000000Y-124050000D03*
X99500000Y-128550000D03*
X106000000Y-128550000D03*
%TD*%
D24*
%TO.C,C8*%
X89000000Y-67000000D03*
X90550000Y-67000000D03*
%TD*%
D31*
%TO.C,R2*%
X143000000Y-112000000D03*
X144650000Y-112000000D03*
%TD*%
D24*
%TO.C,C4*%
X148530000Y-112000000D03*
X150080000Y-112000000D03*
%TD*%
D10*
%TO.C,D3*%
X150540000Y-67060000D03*
D11*
X148000000Y-67060000D03*
%TD*%
D32*
%TO.C,J1*%
X114350000Y-127000000D03*
X115000000Y-127000000D03*
X115650000Y-127000000D03*
X116300000Y-127000000D03*
X116950000Y-127000000D03*
D33*
X112850000Y-126750000D03*
D34*
X115650000Y-128900000D03*
D33*
X118450000Y-126750000D03*
%TD*%
D31*
%TO.C,R1*%
X128000000Y-106000000D03*
X129650000Y-106000000D03*
%TD*%
D10*
%TO.C,D1*%
X150540000Y-82000000D03*
D11*
X148000000Y-82000000D03*
%TD*%
D35*
%TO.C,C3*%
X109000000Y-111550000D03*
X109000000Y-110000000D03*
%TD*%
D24*
%TO.C,C1*%
X94000000Y-89000000D03*
X95550000Y-89000000D03*
%TD*%
D36*
%TO.C,U4*%
X81000000Y-72000000D03*
X82270000Y-72000000D03*
X83540000Y-72000000D03*
X84810000Y-72000000D03*
X84810000Y-67050000D03*
X83540000Y-67050000D03*
X82270000Y-67050000D03*
X81000000Y-67050000D03*
D37*
X82905000Y-69525000D03*
%TD*%
D29*
%TO.C,C5*%
X100000000Y-110000000D03*
X100000000Y-111550000D03*
%TD*%
D35*
%TO.C,C9*%
X129000000Y-96550000D03*
X129000000Y-95000000D03*
%TD*%
D38*
%TO.C,J2*%
X160540000Y-86540000D03*
D39*
X163080000Y-84000000D03*
X158000000Y-84000000D03*
X163080000Y-89080000D03*
X158000000Y-89080000D03*
%TD*%
D40*
%TO.C,U5*%
X129580000Y-116275000D03*
X129580000Y-113975000D03*
D41*
X123280000Y-113975000D03*
D40*
X129580000Y-111675000D03*
%TD*%
D23*
%TO.C,R5*%
X156000000Y-67000000D03*
X156000000Y-65350000D03*
%TD*%
M02*
